<?xml version="1.0" encoding="UTF-8"?>
<svg version="1.1" xmlns="http://www.w3.org/2000/svg" width="493" height="131">
<path d="M0 0 C162.69 0 325.38 0 493 0 C493 43.23 493 86.46 493 131 C330.31 131 167.62 131 0 131 C0 87.77 0 44.54 0 0 Z " fill="#282324" transform="translate(0,0)"/>
<path d="M0 0 C31.02 0 62.04 0 94 0 C94 31.02 94 62.04 94 94 C62.98 94 31.96 94 0 94 C0 62.98 0 31.96 0 0 Z " fill="#FD0F01" transform="translate(24,16)"/>
<path d="M0 0 C2.62697064 -0.22137393 5.00893964 -0.28162025 7.625 -0.1875 C8.33140625 -0.17396484 9.0378125 -0.16042969 9.765625 -0.14648438 C11.51074128 -0.1111104 13.25546608 -0.05730221 15 0 C18.27740957 5.15021503 20.15771268 10.23756749 22.01171875 16.04296875 C23.08078971 19.24173049 24.3747937 22.23825742 25.78515625 25.296875 C27.51513101 29.14620791 29.1334624 33.03941146 30.75 36.9375 C31.06815674 37.69635498 31.38631348 38.45520996 31.71411133 39.23706055 C34 44.76570702 34 44.76570702 34 47 C38.18386785 43.73454216 41.64025651 40.27267945 45.08203125 36.23828125 C47.18170782 33.78794587 49.33506376 31.39282427 51.5 29 C54.76089891 25.38657148 57.9844411 21.74518904 61.17578125 18.0703125 C64.02910968 14.83205968 66.95954995 11.6637203 69.88671875 8.4921875 C72.14432158 6.00733358 72.14432158 6.00733358 73.75390625 2.71875 C76 0 76 0 79.890625 -0.5859375 C81.34490937 -0.5462752 82.79861628 -0.47500701 84.25 -0.375 C84.99507813 -0.34792969 85.74015625 -0.32085937 86.5078125 -0.29296875 C88.33978993 -0.22250808 90.17027151 -0.11488993 92 0 C91.3523017 6.09681222 90.20065851 11.92147529 88.75 17.875 C88.41947632 19.24930176 88.41947632 19.24930176 88.08227539 20.65136719 C86.46534894 27.29356558 84.67882988 33.87699019 82.81225586 40.45263672 C79.89758147 50.78952311 77.47380571 61.25352843 75.4296875 71.796875 C74.28386953 77.6717962 72.9688487 83.33955999 71 89 C70.34 91.31 69.68 93.62 69 96 C62.73 96 56.46 96 50 96 C51.59709849 87.45552305 53.41379825 79.39547859 56.09765625 71.12109375 C56.99014098 68.0341011 57.53791424 65.05235077 58 61.875 C58.75043671 56.79615158 60.18976363 52.33303306 62.046875 47.55859375 C63.33950162 44.08863296 64.18297565 40.60852421 65 37 C60.83979588 40.24698858 57.40527312 43.67977882 53.98828125 47.6953125 C50.8622762 51.31877612 47.5873745 54.80453729 44.3203125 58.30078125 C42.25982554 60.69774503 40.85173151 62.95270188 39.3125 65.6875 C37.98046875 67.60546875 37.98046875 67.60546875 36 69 C30.90911539 69.67197527 26.10028369 69.46720156 21 69 C16.74183363 58.4502732 12.85482366 48.02919452 10 37 C8.26927864 40.13600396 7.37192406 43.13007115 6.5625 46.61328125 C6.17964844 48.2384668 6.17964844 48.2384668 5.7890625 49.89648438 C5.39847656 51.58741211 5.39847656 51.58741211 5 53.3125 C4.4805676 55.53808785 3.95977016 57.76335762 3.4375 59.98828125 C3.19136963 61.03749756 2.94523926 62.08671387 2.69165039 63.16772461 C2.1381267 65.43437774 1.53991544 67.66419652 0.87109375 69.8984375 C-0.0122513 73.04362121 -0.51425334 76.07567075 -0.9375 79.3125 C-1.77688918 85.11435798 -3.17255391 90.43459599 -5 96 C-10.94 96 -16.88 96 -23 96 C-23 85.88791357 -23 85.88791357 -21.7578125 82.60546875 C-21.49718018 81.88375488 -21.23654785 81.16204102 -20.96801758 80.41845703 C-20.68982178 79.68224121 -20.41162598 78.94602539 -20.125 78.1875 C-17.94434182 72.06703958 -16.30548469 66.26201969 -15.4296875 59.80078125 C-14.95937189 56.73517858 -14.22940253 53.81041672 -13.4375 50.8125 C-12.2990363 46.49086913 -11.60910554 42.4003218 -11.40625 37.9375 C-11 36 -11 36 -9.57055664 34.29321289 C-7.56610062 31.36645159 -7.1252113 28.85144792 -6.46484375 25.37109375 C-6.21283203 24.08912109 -5.96082031 22.80714844 -5.70117188 21.48632812 C-5.44574754 20.13688258 -5.1911993 18.78727092 -4.9375 17.4375 C-4.43396322 14.78862404 -3.92038414 12.14222809 -3.40234375 9.49609375 C-3.06964478 7.73543579 -3.06964478 7.73543579 -2.73022461 5.93920898 C-2 3 -2 3 0 0 Z " fill="#F4F4F4" transform="translate(160,15)"/>
<path d="M0 0 C1.93842773 0.00966797 1.93842773 0.00966797 3.91601562 0.01953125 C5.27083605 0.03623923 6.62565376 0.05316908 7.98046875 0.0703125 C9.35481126 0.08035247 10.72916078 0.08947654 12.10351562 0.09765625 C15.45851192 0.12120008 18.81315074 0.15408683 22.16796875 0.1953125 C23.98732792 3.78223413 25.63526901 7.23539902 26.85546875 11.0703125 C27.10683594 11.85148437 27.35820312 12.63265625 27.6171875 13.4375 C27.79894531 14.01757812 27.98070312 14.59765625 28.16796875 15.1953125 C29.15796875 15.1953125 30.14796875 15.1953125 31.16796875 15.1953125 C31.42964844 14.64359375 31.69132812 14.091875 31.9609375 13.5234375 C34.64208241 8.35203826 37.14208935 4.3453355 42.16796875 1.1953125 C49.06326979 -0.07344463 56.22403687 0.57794747 63.16796875 1.1953125 C59.44012024 5.59194985 55.64428219 9.90089521 51.73046875 14.1328125 C50.77859625 15.17703814 49.8267734 16.22130904 48.875 17.265625 C47.23627514 19.03913675 45.57318751 20.79110356 43.8671875 22.5 C39.98951142 26.44668973 39.98951142 26.44668973 38.91796875 31.7578125 C40.12869985 35.08732302 41.66123361 37.40179108 43.8359375 40.171875 C45.94942486 43.38239245 46.99788069 46.90893434 48.17578125 50.546875 C49.10376083 53.27733712 49.10376083 53.27733712 50.78515625 55.84375 C52.16796875 58.1953125 52.16796875 58.1953125 52.16796875 61.1953125 C45.89796875 61.1953125 39.62796875 61.1953125 33.16796875 61.1953125 C31.84796875 58.7615625 30.52796875 56.3278125 29.16796875 53.8203125 C28.7503125 53.05541504 28.33265625 52.29051758 27.90234375 51.50244141 C25.16796875 46.41753472 25.16796875 46.41753472 25.16796875 44.1953125 C14.87217508 52.34634286 14.87217508 52.34634286 8.16796875 63.1953125 C6.63671875 64.66796875 6.63671875 64.66796875 4.66796875 66.2578125 C-0.32521585 70.47448015 -4.53524126 75.28738171 -8.83203125 80.1953125 C-9.83203125 81.1953125 -9.83203125 81.1953125 -11.78149414 81.30883789 C-12.61414795 81.30360107 -13.44680176 81.29836426 -14.3046875 81.29296875 C-15.20380859 81.28974609 -16.10292969 81.28652344 -17.02929688 81.28320312 C-18.44758789 81.27063477 -18.44758789 81.27063477 -19.89453125 81.2578125 C-20.84392578 81.25330078 -21.79332031 81.24878906 -22.77148438 81.24414062 C-25.1250619 81.2323136 -27.47851602 81.21583275 -29.83203125 81.1953125 C-28.90702824 79.93241144 -27.97780163 78.67260342 -27.046875 77.4140625 C-26.52988037 76.71216797 -26.01288574 76.01027344 -25.48022461 75.28710938 C-23.38021903 72.62189714 -21.03640791 70.31690372 -18.60229492 67.9597168 C-16.83073124 66.1940168 -15.19884878 64.36266365 -13.5703125 62.46484375 C-10.57395085 59.01448791 -7.48809405 55.67118806 -4.33764648 52.36157227 C-1.74536765 49.63400899 0.8146915 46.87707112 3.37353516 44.11816406 C4.49477635 42.91668166 5.6234921 41.72208132 6.76318359 40.53808594 C12.01509715 35.41178208 12.01509715 35.41178208 14.40234375 28.76953125 C13.485859 23.72037914 10.76402862 19.54999358 8.16796875 15.1953125 C7.41796875 12.2578125 7.41796875 12.2578125 7.16796875 10.1953125 C6.50796875 10.1953125 5.84796875 10.1953125 5.16796875 10.1953125 C4.87921875 9.2259375 4.59046875 8.2565625 4.29296875 7.2578125 C3.52582193 4.08867047 3.52582193 4.08867047 1.16796875 3.1953125 C-0.41720009 7.52810733 -1.20593446 11.63375016 -1.83203125 16.1953125 C-3.64202305 18.0053043 -6.576664 17.41120193 -9.01953125 17.5078125 C-14.36191842 17.89986063 -17.90212808 18.26540933 -21.83203125 22.1953125 C-24.1030719 26.92906731 -25.54790448 31.51036894 -26.76953125 36.6328125 C-27.10658683 38.02738823 -27.44383251 39.42191803 -27.78125 40.81640625 C-27.95188965 41.53038574 -28.1225293 42.24436523 -28.29833984 42.97998047 C-29.20050867 46.72484777 -30.14368476 50.45938235 -31.08203125 54.1953125 C-31.65953125 56.5053125 -32.23703125 58.8153125 -32.83203125 61.1953125 C-38.77203125 61.1953125 -44.71203125 61.1953125 -50.83203125 61.1953125 C-50.17839775 55.96624448 -49.48254479 51.25832553 -48.26953125 46.1953125 C-48.00011719 45.0609375 -47.73070312 43.9265625 -47.453125 42.7578125 C-47.14568359 41.489375 -47.14568359 41.489375 -46.83203125 40.1953125 C-46.17203125 40.1953125 -45.51203125 40.1953125 -44.83203125 40.1953125 C-44.92484375 38.49375 -44.92484375 38.49375 -45.01953125 36.7578125 C-45.02550339 33.53777648 -44.57780396 31.07315739 -43.453125 28.0625 C-41.70044731 23.03760466 -40.67526133 17.98238202 -39.70703125 12.7578125 C-39.3736427 10.98779924 -39.03782589 9.21824109 -38.69921875 7.44921875 C-38.55597168 6.67908447 -38.41272461 5.9089502 -38.26513672 5.11547852 C-37.83203125 3.1953125 -37.83203125 3.1953125 -36.83203125 1.1953125 C-30.89203125 1.1953125 -24.95203125 1.1953125 -18.83203125 1.1953125 C-19.16203125 3.5053125 -19.49203125 5.8153125 -19.83203125 8.1953125 C-19.31253906 7.78539062 -18.79304688 7.37546875 -18.2578125 6.953125 C-17.56042969 6.41429687 -16.86304688 5.87546875 -16.14453125 5.3203125 C-15.46003906 4.78664063 -14.77554688 4.25296875 -14.0703125 3.703125 C-9.40769067 0.56216161 -5.58927234 -0.04924469 0 0 Z " fill="#F42D2B" transform="translate(418.83203125,49.8046875)"/>
<path d="M0 0 C0 0.66 0 1.32 0 2 C3.3863251 3.50930183 3.3863251 3.50930183 7 4 C7.33 2.68 7.66 1.36 8 0 C14.27 0 20.54 0 27 0 C23.25 17.27678571 23.25 17.27678571 21 25.375 C19.12709059 32.20300831 17.71195114 39.08134028 16.39453125 46.03662109 C16.24113281 46.83922363 16.08773437 47.64182617 15.9296875 48.46875 C15.79804199 49.17451172 15.66639648 49.88027344 15.53076172 50.60742188 C14.82852382 53.77298372 13.89078807 56.88224176 13 60 C7.39 60 1.78 60 -4 60 C-4 58.35 -4 56.7 -4 55 C-4.69867188 55.42152344 -5.39734375 55.84304687 -6.1171875 56.27734375 C-7.02726562 56.82519531 -7.93734375 57.37304688 -8.875 57.9375 C-9.77992188 58.48277344 -10.68484375 59.02804688 -11.6171875 59.58984375 C-18.14375248 63.4522863 -27.26862198 62.88235684 -34.66015625 61.50390625 C-39.11893389 59.98328266 -41.97374274 57.53063347 -45 54 C-45.721875 53.175 -46.44375 52.35 -47.1875 51.5 C-52.75949212 43.81449363 -51.87829969 33.30739795 -50.5 24.25 C-47.663944 13.86416735 -39.02487453 6.17155731 -30 1 C-20.76180972 -3.32674735 -9.52805505 -3.54532281 0 0 Z " fill="#F3F2F2" transform="translate(297,51)"/>
<path d="M0 0 C31.02 0 62.04 0 94 0 C94 2.97 94 5.94 94 9 C72.88 9 51.76 9 30 9 C30 31.77 30 54.54 30 78 C20.1 78 10.2 78 0 78 C0 52.26 0 26.52 0 0 Z " fill="#FFFFFF" transform="translate(24,16)"/>
<path d="M0 0 C5.94 0 11.88 0 18 0 C16.73439419 7.49628055 15.08857648 14.68998231 13 22 C17.62 22 22.24 22 27 22 C26.46400978 27.05362207 25.83675099 31.97949405 25 37 C19.72 37 14.44 37 9 37 C8.731875 38.959375 8.46375 40.91875 8.1875 42.9375 C7.56379394 47.07460065 6.82736057 50.88906148 5.375 54.8125 C3.81960315 59.03317487 3.75582235 62.52340979 4 67 C7.96 67 11.92 67 16 67 C16 71.95 16 76.9 16 82 C12.39972077 83.80013962 8.21443564 83.22753861 4.25 83.25 C3.35539062 83.270625 2.46078125 83.29125 1.5390625 83.3125 C-3.76441052 83.34378893 -7.37661897 82.90874966 -12 80 C-12 79.01 -12 78.02 -12 77 C-12.66 77 -13.32 77 -14 77 C-18.22650153 64.3204954 -11.77830606 49.0905794 -8 37 C-10.97 37 -13.94 37 -17 37 C-16.22095672 26.44191344 -16.22095672 26.44191344 -14 22 C-10.7 22 -7.4 22 -4 22 C-3.896875 20.5975 -3.79375 19.195 -3.6875 17.75 C-3.09266819 11.64422638 -1.58320454 5.91980827 0 0 Z " fill="#F3F2F2" transform="translate(345,29)"/>
<path d="M0 0 C6.93 0 13.86 0 21 0 C21 22.77 21 45.54 21 69 C14.07 69 7.14 69 0 69 C0 46.23 0 23.46 0 0 Z " fill="#000000" transform="translate(54,25)"/>
<path d="M0 0 C5.94 0 11.88 0 18 0 C17.67 2.31 17.34 4.62 17 7 C17.825 6.21625 18.65 5.4325 19.5 4.625 C24.76157073 0.24449418 30.34781014 -0.10394047 37 0 C36.69262339 2.47990255 36.37935917 4.95880735 36.0625 7.4375 C35.97548828 8.14455078 35.88847656 8.85160156 35.79882812 9.58007812 C35.11328125 14.88671875 35.11328125 14.88671875 34 16 C31.9391374 16.13267356 29.87601571 16.23089203 27.8125 16.3125 C22.47011283 16.70454813 18.92990317 17.07009683 15 21 C12.72895935 25.73375481 11.28412677 30.31505644 10.0625 35.4375 C9.72544442 36.83207573 9.38819874 38.22660553 9.05078125 39.62109375 C8.8801416 40.33507324 8.70950195 41.04905273 8.53369141 41.78466797 C7.63152258 45.52953527 6.68834649 49.26406985 5.75 53 C5.1725 55.31 4.595 57.62 4 60 C-1.94 60 -7.88 60 -14 60 C-13.3463665 54.77093198 -12.65051354 50.06301303 -11.4375 45 C-11.16808594 43.865625 -10.89867187 42.73125 -10.62109375 41.5625 C-10.31365234 40.2940625 -10.31365234 40.2940625 -10 39 C-9.34 39 -8.68 39 -8 39 C-8.0928125 37.2984375 -8.0928125 37.2984375 -8.1875 35.5625 C-8.19347214 32.34246398 -7.74577271 29.87784489 -6.62109375 26.8671875 C-4.86841606 21.84229216 -3.84323008 16.78706952 -2.875 11.5625 C-2.54161145 9.79248674 -2.20579464 8.02292859 -1.8671875 6.25390625 C-1.72394043 5.48377197 -1.58069336 4.7136377 -1.43310547 3.92016602 C-1 2 -1 2 0 0 Z " fill="#F1F0F0" transform="translate(382,51)"/>
<path d="M0 0 C7.26 0 14.52 0 22 0 C22 17.49 22 34.98 22 53 C14.74 53 7.48 53 0 53 C0 35.51 0 18.02 0 0 Z " fill="#FFFFFF" transform="translate(75,41)"/>
<path d="M0 0 C2.72791733 4.72839004 3.66514847 8.58379104 3 14 C1.25974696 19.52721876 -1.98308546 24.03970914 -6.453125 27.703125 C-11.68882612 30.36915686 -17.33465919 30.00946073 -23 29 C-25.68532835 27.60560014 -26.93375923 26.28961815 -29 24 C-29.99 23.67 -30.98 23.34 -32 23 C-32.32342553 16.37576599 -32.5844434 10.82472053 -29 5 C-21.71557248 -2.85204524 -9.53929115 -7.21263477 0 0 Z " fill="#2C2626" transform="translate(296,68)"/>
<path d="M0 0 C0.495 1.485 0.495 1.485 1 3 C-1.39451543 7.32854713 -4.08800735 10.03957313 -8 13 C-8.33 13.66 -8.66 14.32 -9 15 C-9.99 15.33 -10.98 15.66 -12 16 C-13.02611949 17.65071396 -14.02308143 19.31970006 -15 21 C-17.0625 23.3125 -17.0625 23.3125 -19 25 C-19.66 25 -20.32 25 -21 25 C-20.71125 25.721875 -20.4225 26.44375 -20.125 27.1875 C-19.39056705 29.02358238 -18.70059455 30.87825599 -18.0625 32.75 C-17.711875 33.4925 -17.36125 34.235 -17 35 C-16.01 35.33 -15.02 35.66 -14 36 C-13.34 39.3 -12.68 42.6 -12 46 C-11.34 46 -10.68 46 -10 46 C-9.27302439 47.74233825 -8.56901756 49.49427345 -7.875 51.25 C-7.28332031 52.71179688 -7.28332031 52.71179688 -6.6796875 54.203125 C-6 57 -6 57 -8 61 C-15.26 61 -22.52 61 -30 61 C-32.31 56.05 -34.62 51.1 -37 46 C-43.00940613 49.00470306 -43.7820081 49.70588429 -47 55 C-48.57968884 57.11745525 -50.22226677 59.03513695 -52 61 C-52.66 61 -53.32 61 -54 61 C-54 61.66 -54 62.32 -54 63 C-54.66 63 -55.32 63 -56 63 C-56.4021875 63.8353125 -56.4021875 63.8353125 -56.8125 64.6875 C-60.47826087 71.82608696 -60.47826087 71.82608696 -64 73 C-64 73.66 -64 74.32 -64 75 C-65.25 76.6875 -65.25 76.6875 -67 78 C-69.109375 77.58203125 -69.109375 77.58203125 -71 77 C-70.04882866 75.8274869 -69.08882991 74.66212985 -68.125 73.5 C-67.32449219 72.52546875 -67.32449219 72.52546875 -66.5078125 71.53125 C-65.76144531 70.77328125 -65.76144531 70.77328125 -65 70 C-64.34 70 -63.68 70 -63 70 C-62.79375 69.46375 -62.5875 68.9275 -62.375 68.375 C-60.46749574 65.08021991 -57.95180616 62.40636372 -55 60 C-54.34 60 -53.68 60 -53 60 C-52.94585937 59.46503906 -52.89171875 58.93007812 -52.8359375 58.37890625 C-51.60563513 54.87771868 -49.14441524 52.56996592 -46.625 49.9375 C-45.8825 49.14375977 -45.8825 49.14375977 -45.125 48.33398438 C-43.76015205 46.87972793 -42.38060243 45.4393084 -41 44 C-40.43023437 43.38253906 -39.86046875 42.76507813 -39.2734375 42.12890625 C-38 41 -38 41 -36 41 C-33.36 46.28 -30.72 51.56 -28 57 C-21.73 57.33 -15.46 57.66 -9 58 C-9.928125 56.185 -10.85625 54.37 -11.8125 52.5 C-13.88739535 48.36475296 -15.70537042 44.30596787 -17.20703125 39.9375 C-18.48416219 36.81702243 -20.30286282 34.01532769 -22.109375 31.17578125 C-23.34382034 28.16005295 -23.19962069 27.05681124 -22 24 C-19.97722595 21.37857969 -17.69533292 19.04544393 -15.375 16.6875 C-14.09677926 15.35631029 -12.81942651 14.02428655 -11.54296875 12.69140625 C-10.9298584 12.05605957 -10.31674805 11.42071289 -9.68505859 10.76611328 C-7.07519105 8.03070589 -4.60008398 5.1869995 -2.13671875 2.3203125 C-1 1 -1 1 0 0 Z " fill="#5A1914" transform="translate(480,53)"/>
<path d="M0 0 C1.93842773 0.00966797 1.93842773 0.00966797 3.91601562 0.01953125 C5.27083605 0.03623923 6.62565376 0.05316908 7.98046875 0.0703125 C9.35481126 0.08035247 10.72916078 0.08947654 12.10351562 0.09765625 C15.45851192 0.12120008 18.81315074 0.15408683 22.16796875 0.1953125 C24.37884022 4.5547042 25.94424976 8.48870102 27.16796875 13.1953125 C23.95430984 12.08715425 23.17654635 11.21001696 21.41796875 8.1953125 C20.16796875 5.1953125 20.16796875 5.1953125 20.16796875 3.1953125 C16.53796875 3.5253125 12.90796875 3.8553125 9.16796875 4.1953125 C7.78299828 7.24951735 7.78299828 7.24951735 9.49609375 10.33984375 C10.12665974 11.56771802 10.76774383 12.79023447 11.41796875 14.0078125 C11.73121094 14.61173828 12.04445313 15.21566406 12.3671875 15.83789062 C12.67785156 16.43666016 12.98851562 17.03542969 13.30859375 17.65234375 C13.61732422 18.24740723 13.92605469 18.8424707 14.24414062 19.45556641 C15.11710636 21.09952884 16.03961549 22.71690453 16.96484375 24.33203125 C18.38688216 27.71629799 18.54095221 28.8096601 17.16796875 32.1953125 C15.50365326 34.58209222 13.61423866 36.72319177 11.66796875 38.8828125 C10.86081421 39.80102783 10.86081421 39.80102783 10.03735352 40.73779297 C8.42479039 42.56671927 6.79918506 44.38301854 5.16796875 46.1953125 C4.70632324 46.7094873 4.24467773 47.22366211 3.76904297 47.75341797 C1.85739345 49.88028153 -0.06012678 52.00101824 -1.9921875 54.109375 C-3.87072929 56.16688304 -3.87072929 56.16688304 -5.453125 58.46875 C-5.90816406 59.03851563 -6.36320312 59.60828125 -6.83203125 60.1953125 C-7.49203125 60.1953125 -8.15203125 60.1953125 -8.83203125 60.1953125 C-9.10273438 60.77023438 -9.3734375 61.34515625 -9.65234375 61.9375 C-10.8491856 64.22814433 -12.17873782 66.23771576 -13.70703125 68.3203125 C-14.19945312 69.00351563 -14.691875 69.68671875 -15.19921875 70.390625 C-16.95778775 72.33430653 -18.48976229 73.08356618 -20.83203125 74.1953125 C-21.47140625 75.0203125 -22.11078125 75.8453125 -22.76953125 76.6953125 C-25.00123251 79.40040494 -26.52812007 80.18578408 -29.83203125 81.1953125 C-26.44811501 76.42312293 -22.92402069 72.13062857 -18.70922852 68.07275391 C-16.90323159 66.2665221 -15.23321944 64.40271761 -13.5703125 62.46484375 C-10.57395085 59.01448791 -7.48809405 55.67118806 -4.33764648 52.36157227 C-1.74536765 49.63400899 0.8146915 46.87707112 3.37353516 44.11816406 C4.49477635 42.91668166 5.6234921 41.72208132 6.76318359 40.53808594 C12.01509715 35.41178208 12.01509715 35.41178208 14.40234375 28.76953125 C13.485859 23.72037914 10.76402862 19.54999358 8.16796875 15.1953125 C7.41796875 12.2578125 7.41796875 12.2578125 7.16796875 10.1953125 C6.50796875 10.1953125 5.84796875 10.1953125 5.16796875 10.1953125 C4.87921875 9.2259375 4.59046875 8.2565625 4.29296875 7.2578125 C3.52582193 4.08867047 3.52582193 4.08867047 1.16796875 3.1953125 C0.83796875 4.8453125 0.50796875 6.4953125 0.16796875 8.1953125 C-0.7662677 5.18499506 -0.87653036 4.32880982 0.16796875 1.1953125 C-1.68828125 1.72125 -1.68828125 1.72125 -3.58203125 2.2578125 C-6.73532325 3.15124523 -8.69977289 3.20412544 -11.83203125 2.1953125 C-7.75182684 0.2510766 -4.49825955 -0.03963224 0 0 Z " fill="#C93433" transform="translate(418.83203125,49.8046875)"/>
<path d="M0 0 C-3.72784851 4.39663735 -7.52368656 8.70558271 -11.4375 12.9375 C-12.3893725 13.98172564 -13.34119535 15.02599654 -14.29296875 16.0703125 C-15.93169361 17.84382425 -17.59478124 19.59579106 -19.30078125 21.3046875 C-23.17845733 25.25137723 -23.17845733 25.25137723 -24.25 30.5625 C-22.97075757 34.08041668 -21.42726345 36.3813748 -19.14453125 39.2890625 C-17.50687192 41.73716757 -17.21191664 44.10380586 -17 47 C-17.66 47 -18.32 47 -19 47 C-20.15879664 44.81855776 -21.30187378 42.63096983 -22.4375 40.4375 C-22.76298828 39.82841797 -23.08847656 39.21933594 -23.42382812 38.59179688 C-25.57038026 34.40933962 -26.68242336 30.76364964 -27 26 C-26.67 25.01 -26.34 24.02 -26 23 C-25.01 23 -24.02 23 -23 23 C-22.731875 22.4225 -22.46375 21.845 -22.1875 21.25 C-20.97070811 18.94449957 -19.69666121 16.97943808 -18 15 C-17.34 15 -16.68 15 -16 15 C-15.67 14.01 -15.34 13.02 -15 12 C-12.5625 9.3125 -12.5625 9.3125 -10 7 C-9.34 7 -8.68 7 -8 7 C-8 5.68 -8 4.36 -8 3 C-14.90786665 2.00826481 -14.90786665 2.00826481 -21.078125 4.5703125 C-22.83155703 6.64757658 -24.42183895 8.78740234 -26 11 C-27.90695743 13.20175278 -29.81133565 15.05452058 -32 17 C-33.32 17 -34.64 17 -36 17 C-36 15.35 -36 13.7 -36 12 C-35.67 12.66 -35.34 13.32 -35 14 C-34.01 14 -33.02 14 -32 14 C-31.73832031 13.44828125 -31.47664063 12.8965625 -31.20703125 12.328125 C-23.83877424 -1.88378819 -14.54344204 -1.29301564 0 0 Z " fill="#DA383A" transform="translate(482,51)"/>
<path d="M0 0 C3.66325851 0.96168445 4.85105066 1.78104159 7.01953125 4.96875 C7.61121094 6.1340625 8.20289063 7.299375 8.8125 8.5 C9.41707031 9.6653125 10.02164063 10.830625 10.64453125 12.03125 C12 15 12 15 12 17 C12.96421875 17 13.9284375 17 14.921875 17 C19.94791667 17 24.97395833 17 30 17 C30 17.99 30 18.98 30 20 C23.73 20 17.46 20 11 20 C9.68 17.56625 8.36 15.1325 7 12.625 C6.58234375 11.86010254 6.1646875 11.09520508 5.734375 10.30712891 C3 5.22222222 3 5.22222222 3 3 C-7.29579367 11.15103036 -7.29579367 11.15103036 -14 22 C-15.53125 23.47265625 -15.53125 23.47265625 -17.5 25.0625 C-21.78171009 28.65882844 -25.33070992 32.68512584 -28.921875 36.9609375 C-31.03692636 39.03623226 -32.10768228 39.64823163 -35 40 C-33.4422692 36.17647894 -31.08404742 33.70794407 -28 31 C-27.01 31 -26.02 31 -25 31 C-24.773125 30.278125 -24.54625 29.55625 -24.3125 28.8125 C-22.73664872 25.43567583 -20.79123384 23.44232961 -18 21 C-17.34 21 -16.68 21 -16 21 C-16 19.35 -16 17.7 -16 16 C-15.01 16 -14.02 16 -13 16 C-13 15.34 -13 14.68 -13 14 C-12.34 14 -11.68 14 -11 14 C-10.67 13.01 -10.34 12.02 -10 11 C-9.34 11 -8.68 11 -8 11 C-7.67 10.01 -7.34 9.02 -7 8 C-6.34 8 -5.68 8 -5 8 C-5 7.34 -5 6.68 -5 6 C-4.34 6 -3.68 6 -3 6 C-2.814375 5.071875 -2.814375 5.071875 -2.625 4.125 C-2 2 -2 2 0 0 Z " fill="#D73738" transform="translate(441,91)"/>
<path d="M0 0 C2.64 5.28 5.28 10.56 8 16 C14.27 16.33 20.54 16.66 27 17 C27.495 15.515 27.495 15.515 28 14 C28 15.32 28 16.64 28 18 C24.58362047 18.11632513 21.16775103 18.18728897 17.75 18.25 C16.78191406 18.28351563 15.81382812 18.31703125 14.81640625 18.3515625 C7.66306493 18.45022928 7.66306493 18.45022928 4.46875 16.28125 C2.98719005 13.9801037 1.79208572 11.78077961 0.75 9.25 C0.41484375 8.45078125 0.0796875 7.6515625 -0.265625 6.828125 C-0.50796875 6.22484375 -0.7503125 5.6215625 -1 5 C-6.15728034 7.1097965 -8.13541047 9.28728819 -11 14 C-12.57968884 16.11745525 -14.22226677 18.03513695 -16 20 C-16.66 20 -17.32 20 -18 20 C-18 20.66 -18 21.32 -18 22 C-18.66 22 -19.32 22 -20 22 C-20.268125 22.556875 -20.53625 23.11375 -20.8125 23.6875 C-24.47826087 30.82608696 -24.47826087 30.82608696 -28 32 C-28 32.66 -28 33.32 -28 34 C-29.25 35.6875 -29.25 35.6875 -31 37 C-33.109375 36.58203125 -33.109375 36.58203125 -35 36 C-34.04882866 34.8274869 -33.08882991 33.66212985 -32.125 32.5 C-31.59132813 31.8503125 -31.05765625 31.200625 -30.5078125 30.53125 C-30.01023437 30.0259375 -29.51265625 29.520625 -29 29 C-28.34 29 -27.68 29 -27 29 C-26.79375 28.46375 -26.5875 27.9275 -26.375 27.375 C-24.46749574 24.08021991 -21.95180616 21.40636372 -19 19 C-18.34 19 -17.68 19 -17 19 C-16.94585937 18.46503906 -16.89171875 17.93007812 -16.8359375 17.37890625 C-15.60563513 13.87771868 -13.14441524 11.56996592 -10.625 8.9375 C-9.8825 8.14375977 -9.8825 8.14375977 -9.125 7.33398438 C-7.76015205 5.87972793 -6.38060243 4.4393084 -5 3 C-4.43023437 2.38253906 -3.86046875 1.76507813 -3.2734375 1.12890625 C-2 0 -2 0 0 0 Z " fill="#6B1E1C" transform="translate(444,94)"/>
<path d="M0 0 C0.66 0 1.32 0 2 0 C2.25394531 0.59167969 2.50789063 1.18335938 2.76953125 1.79296875 C4.96292677 6.84703074 4.96292677 6.84703074 7.6875 11.625 C9.50771308 14.9187189 9.92586572 17.21915196 10 21 C8.58525535 23.69972438 6.59969357 25.74790857 4.5 27.9375 C3.62444458 28.8970459 3.62444458 28.8970459 2.73120117 29.87597656 C0.84073241 31.93685025 -1.07741748 33.96908947 -3 36 C-4.28621408 37.38052561 -5.5713731 38.76203497 -6.85546875 40.14453125 C-9.37724843 42.85149562 -11.91034692 45.54713224 -14.453125 48.234375 C-19.04183454 53.09038801 -23.5295344 58.0351535 -28 63 C-28.495 61.515 -28.495 61.515 -29 60 C-27.39346472 57.84265263 -25.82940489 55.94628353 -24 54 C-23.278125 53.21625 -22.55625 52.4325 -21.8125 51.625 C-20 50 -20 50 -18 50 C-17.773125 49.484375 -17.54625 48.96875 -17.3125 48.4375 C-16.1517367 46.28179673 -14.92881151 44.27889028 -13.5625 42.25 C-13.15128906 41.63640625 -12.74007813 41.0228125 -12.31640625 40.390625 C-11.66478516 39.70226562 -11.66478516 39.70226562 -11 39 C-10.01 39 -9.02 39 -8 39 C-7.67 37.68 -7.34 36.36 -7 35 C-6.34 35 -5.68 35 -5 35 C-4.773125 34.443125 -4.54625 33.88625 -4.3125 33.3125 C-2.64123288 30.3678865 -0.39147596 28.39147596 2 26 C4.12392342 23.24463989 5.76122839 21.10431869 6.5 17.6875 C5.84496076 14.1666641 4.43033057 11.20155101 2.875 7.98828125 C2 6 2 6 2 4 C1.34 4 0.68 4 0 4 C0 2.68 0 1.36 0 0 Z " fill="#4E1818" transform="translate(424,60)"/>
<path d="M0 0 C1.93842773 0.00966797 1.93842773 0.00966797 3.91601562 0.01953125 C5.27083605 0.03623923 6.62565376 0.05316908 7.98046875 0.0703125 C9.35481126 0.08035247 10.72916078 0.08947654 12.10351562 0.09765625 C15.45851192 0.12120008 18.81315074 0.15408683 22.16796875 0.1953125 C24.37884022 4.5547042 25.94424976 8.48870102 27.16796875 13.1953125 C23.95430984 12.08715425 23.17654635 11.21001696 21.41796875 8.1953125 C20.16796875 5.1953125 20.16796875 5.1953125 20.16796875 3.1953125 C16.53796875 3.5253125 12.90796875 3.8553125 9.16796875 4.1953125 C8.83796875 5.1853125 8.50796875 6.1753125 8.16796875 7.1953125 C8.45671875 7.7521875 8.74546875 8.3090625 9.04296875 8.8828125 C10.68269995 12.25337107 10.79578741 15.47349909 11.16796875 19.1953125 C9.16796875 18.1953125 9.16796875 18.1953125 8.53515625 16.34765625 C8.37273437 15.61675781 8.2103125 14.88585937 8.04296875 14.1328125 C7.87539063 13.39933594 7.7078125 12.66585937 7.53515625 11.91015625 C7.41398437 11.34425781 7.2928125 10.77835938 7.16796875 10.1953125 C6.50796875 10.1953125 5.84796875 10.1953125 5.16796875 10.1953125 C4.87921875 9.2259375 4.59046875 8.2565625 4.29296875 7.2578125 C3.52582193 4.08867047 3.52582193 4.08867047 1.16796875 3.1953125 C0.83796875 4.8453125 0.50796875 6.4953125 0.16796875 8.1953125 C-0.7662677 5.18499506 -0.87653036 4.32880982 0.16796875 1.1953125 C-1.68828125 1.72125 -1.68828125 1.72125 -3.58203125 2.2578125 C-6.73532325 3.15124523 -8.69977289 3.20412544 -11.83203125 2.1953125 C-7.75182684 0.2510766 -4.49825955 -0.03963224 0 0 Z " fill="#A83E41" transform="translate(418.83203125,49.8046875)"/>
<path d="M0 0 C0.495 1.98 0.495 1.98 1 4 C0.34 3.67 -0.32 3.34 -1 3 C-7.66292241 1.99201943 -16.81474671 0.68785956 -22.90380859 4.05175781 C-26.8423248 7.31212683 -29.71922373 11.43844746 -32 16 C-32.99 16 -33.98 16 -35 16 C-38.44783018 11.69021227 -39.56743317 6.23242495 -41 1 C-40.34 1 -39.68 1 -39 1 C-36.55954927 4.45730521 -35.21934486 7.96678237 -34 12 C-30.08396696 9.20579508 -30.08396696 9.20579508 -28 5 C-25.9375 4.3125 -25.9375 4.3125 -24 4 C-23.67 2.68 -23.34 1.36 -23 0 C-15.15597666 -0.72526532 -7.80255144 -1.21074074 0 0 Z " fill="#531A1A" transform="translate(482,49)"/>
<path d="M0 0 C0.33 0.99 0.66 1.98 1 3 C-1.39451543 7.32854713 -4.08800735 10.03957313 -8 13 C-8.33 13.66 -8.66 14.32 -9 15 C-9.99 15.33 -10.98 15.66 -12 16 C-12.6496875 17.11375 -12.6496875 17.11375 -13.3125 18.25 C-14.833705 20.72900074 -15.86165698 21.86218884 -18.0625 23.625 C-21.11806718 25.85396953 -21.11806718 25.85396953 -23 29 C-22.76386468 23.38641938 -19.08930711 20.4620135 -15.375 16.6875 C-14.09677926 15.35631029 -12.81942651 14.02428655 -11.54296875 12.69140625 C-10.9298584 12.05605957 -10.31674805 11.42071289 -9.68505859 10.76611328 C-7.07519105 8.03070589 -4.60008398 5.1869995 -2.13671875 2.3203125 C-1 1 -1 1 0 0 Z " fill="#6C1B1A" transform="translate(480,53)"/>
<path d="M0 0 C0.99 0.33 1.98 0.66 3 1 C1.625 3 1.625 3 0 5 C-0.66 5 -1.32 5 -2 5 C-2 5.66 -2 6.32 -2 7 C-2.66 7 -3.32 7 -4 7 C-4.268125 7.556875 -4.53625 8.11375 -4.8125 8.6875 C-8.47826087 15.82608696 -8.47826087 15.82608696 -12 17 C-12 17.66 -12 18.32 -12 19 C-13.25 20.6875 -13.25 20.6875 -15 22 C-17.109375 21.58203125 -17.109375 21.58203125 -19 21 C-18.04882866 19.8274869 -17.08882991 18.66212985 -16.125 17.5 C-15.59132813 16.8503125 -15.05765625 16.200625 -14.5078125 15.53125 C-13.76144531 14.77328125 -13.76144531 14.77328125 -13 14 C-12.34 14 -11.68 14 -11 14 C-10.79375 13.46375 -10.5875 12.9275 -10.375 12.375 C-8.46749574 9.08021991 -5.95180616 6.40636372 -3 4 C-2.34 4 -1.68 4 -1 4 C-0.67 2.68 -0.34 1.36 0 0 Z " fill="#591D19" transform="translate(428,109)"/>
<path d="M0 0 C2.15048246 2.15048246 2.75238175 3.54214062 3.75 6.375 C4.03359375 7.14585938 4.3171875 7.91671875 4.609375 8.7109375 C5 11 5 11 3 15 C-4.26 15 -11.52 15 -19 15 C-19.33 14.01 -19.66 13.02 -20 12 C-12.41 12.33 -4.82 12.66 3 13 C1.515 8.05 1.515 8.05 0 3 C0 2.01 0 1.02 0 0 Z " fill="#3B1919" transform="translate(469,99)"/>
<path d="M0 0 C0.99 0.66 1.98 1.32 3 2 C0.69235642 4.68997506 -1.64272653 7.35340323 -4 10 C-4.54785156 10.61617187 -5.09570312 11.23234375 -5.66015625 11.8671875 C-7.1875 13.5 -7.1875 13.5 -10 16 C-11.32 16 -12.64 16 -14 16 C-14 14.35 -14 12.7 -14 11 C-13.67 11.66 -13.34 12.32 -13 13 C-12.01 13 -11.02 13 -10 13 C-9.75507813 12.43796875 -9.51015625 11.8759375 -9.2578125 11.296875 C-7.77073461 8.58134146 -5.95937218 6.53608562 -3.875 4.25 C-3.15054687 3.45078125 -2.42609375 2.6515625 -1.6796875 1.828125 C-0.84824219 0.92320313 -0.84824219 0.92320313 0 0 Z " fill="#C73535" transform="translate(460,52)"/>
<path d="M0 0 C0.66 0 1.32 0 2 0 C1.74412595 1.77305664 1.46972261 3.54344608 1.1875 5.3125 C1.03667969 6.29863281 0.88585937 7.28476562 0.73046875 8.30078125 C-0.03563635 11.13168297 -0.70469809 12.23484657 -3 14 C-3.33 14 -3.66 14 -4 14 C-4 12.35 -4 10.7 -4 9 C-5.32 9.33 -6.64 9.66 -8 10 C-7.04367001 8.70684939 -6.08486149 7.41553147 -5.125 6.125 C-4.59132812 5.40570313 -4.05765625 4.68640625 -3.5078125 3.9453125 C-2 2 -2 2 0 0 Z " fill="#363535" transform="translate(223,52)"/>
<path d="M0 0 C0.66 1.32 1.32 2.64 2 4 C2.96421875 4 3.9284375 4 4.921875 4 C9.94791667 4 14.97395833 4 20 4 C20 4.99 20 5.98 20 7 C16.85418577 7.02888514 13.70840531 7.04675923 10.5625 7.0625 C9.21575195 7.07506836 9.21575195 7.07506836 7.84179688 7.08789062 C6.56079102 7.09272461 6.56079102 7.09272461 5.25390625 7.09765625 C4.46314697 7.10289307 3.6723877 7.10812988 2.85766602 7.11352539 C1 7 1 7 0 6 C-0.04080783 4.00041636 -0.04254356 1.99954746 0 0 Z " fill="#CD3D3E" transform="translate(451,104)"/>
<path d="M0 0 C1.39456452 0.00667256 2.78911118 0.01863093 4.18359375 0.03515625 C4.89451172 0.03966797 5.60542969 0.04417969 6.33789062 0.04882812 C8.09899388 0.06064761 9.86005411 0.07858362 11.62109375 0.09765625 C11.62109375 1.08765625 11.62109375 2.07765625 11.62109375 3.09765625 C6.67109375 2.76765625 1.72109375 2.43765625 -3.37890625 2.09765625 C-3.48203125 3.85078125 -3.58515625 5.60390625 -3.69140625 7.41015625 C-3.99909856 12.64092548 -3.99909856 12.64092548 -5.921875 14.953125 C-6.40269531 15.33082031 -6.88351563 15.70851563 -7.37890625 16.09765625 C-5.70176252 0.16479082 -5.70176252 0.16479082 0 0 Z " fill="#C1C0C1" transform="translate(163.37890625,14.90234375)"/>
<path d="M0 0 C0.66 0 1.32 0 2 0 C1.731875 0.969375 1.46375 1.93875 1.1875 2.9375 C0.40166928 8.16221235 3.33109818 11.7407791 6 16 C7.53130386 18.72971558 8 19.79288352 8 23 C7.34 23 6.68 23 6 23 C4.84120336 20.81855776 3.69812622 18.63096983 2.5625 16.4375 C2.23701172 15.82841797 1.91152344 15.21933594 1.57617188 14.59179688 C-0.56243787 10.42481501 -1.77054225 6.75977742 -2 2 C-1.34 1.34 -0.68 0.68 0 0 Z " fill="#C63432" transform="translate(457,75)"/>
<path d="M0 0 C0.33 0.99 0.66 1.98 1 3 C-1.35049616 7.33937752 -3.58606929 9.79303465 -8 12 C-7.84595887 6.91664275 -4.97931568 4.64245282 -1.49609375 1.35546875 C-1.00238281 0.90816406 -0.50867188 0.46085937 0 0 Z " fill="#5D1C1B" transform="translate(480,53)"/>
<path d="M0 0 C3.03454359 1.5172718 3.57376446 3.97638065 5 7 C5.5775 8.010625 6.155 9.02125 6.75 10.0625 C8.13374528 13.3143014 8.0695559 14.69409994 7 18 C6.67 18 6.34 18 6 18 C5.7525 17.195625 5.505 16.39125 5.25 15.5625 C3.97659325 11.93329077 2.44816055 8.52366773 0.8046875 5.05078125 C0 3 0 3 0 0 Z " fill="#D1343A" transform="translate(429,64)"/>
<path d="M0 0 C0 4.09860436 -1.61626555 5.10795632 -4.375 8.0625 C-5.59316406 9.37927734 -5.59316406 9.37927734 -6.8359375 10.72265625 C-8.20663219 12.16510211 -9.59297228 13.59297228 -11 15 C-11.99 15 -12.98 15 -14 15 C-13.67 13.68 -13.34 12.36 -13 11 C-13 11.66 -13 12.32 -13 13 C-8.04467233 9.13242719 -4.03523352 4.81123996 0 0 Z " fill="#D3D2D2" transform="translate(207,49)"/>
<path d="M0 0 C0.66 0.33 1.32 0.66 2 1 C2.4375 3.5 2.4375 3.5 2 7 C-0.08463182 9.91534977 -2.47505363 12.46217125 -5 15 C-5.99 14.67 -6.98 14.34 -8 14 C-7.4225 13.40832031 -6.845 12.81664063 -6.25 12.20703125 C-5.5075 11.41683594 -4.765 10.62664062 -4 9.8125 C-3.2575 9.03519531 -2.515 8.25789063 -1.75 7.45703125 C0.23536171 4.66954796 0.37992882 3.34218632 0 0 Z " fill="#B32F32" transform="translate(433,76)"/>
<path d="M0 0 C1.03115279 3.26913624 0.9638984 5.86041348 0.5625 9.25 C0.46066406 10.14203125 0.35882813 11.0340625 0.25390625 11.953125 C0.12822266 12.96632813 0.12822266 12.96632813 0 14 C-0.99 14.33 -1.98 14.66 -3 15 C-2.5547115 9.72684667 -1.91626837 4.98229776 0 0 Z " fill="#585353" transform="translate(351,79)"/>
<path d="M0 0 C0.33 0 0.66 0 1 0 C1.625 3.375 1.625 3.375 2 7 C0 9 0 9 -1.97119141 9.22705078 C-2.75671387 9.21657715 -3.54223633 9.20610352 -4.3515625 9.1953125 C-5.20234375 9.18886719 -6.053125 9.18242188 -6.9296875 9.17578125 C-8.26386719 9.15064453 -8.26386719 9.15064453 -9.625 9.125 C-10.97078125 9.11146484 -10.97078125 9.11146484 -12.34375 9.09765625 C-14.56276586 9.0740497 -16.78125077 9.0411231 -19 9 C-19 8.67 -19 8.34 -19 8 C-13.06 8 -7.12 8 -1 8 C-0.67 5.36 -0.34 2.72 0 0 Z " fill="#595455" transform="translate(387,103)"/>
<path d="M0 0 C0.66 0 1.32 0 2 0 C1.49477778 4.37859255 -1.17827222 6.81651224 -4 10 C-5.32 9.34 -6.64 8.68 -8 8 C-7.01 8 -6.02 8 -5 8 C-4.731875 7.4225 -4.46375 6.845 -4.1875 6.25 C-2.97070811 3.94449957 -1.69666121 1.97943808 0 0 Z " fill="#E03636" transform="translate(464,66)"/>
<path d="M0 0 C0.99 0 1.98 0 3 0 C5.75702189 4.79482068 6.53328373 8.58609132 7 14 C5 13 5 13 4.3671875 11.15234375 C4.12355469 10.05599609 4.12355469 10.05599609 3.875 8.9375 C3.62363281 7.83728516 3.62363281 7.83728516 3.3671875 6.71484375 C3.24601562 6.14894531 3.12484375 5.58304688 3 5 C2.34 5 1.68 5 1 5 C0.67 3.35 0.34 1.7 0 0 Z " fill="#B32F30" transform="translate(423,55)"/>
<path d="M0 0 C0.33 0.66 0.66 1.32 1 2 C0.45730469 2.47050781 -0.08539063 2.94101563 -0.64453125 3.42578125 C-1.35996094 4.04839844 -2.07539063 4.67101562 -2.8125 5.3125 C-3.52019531 5.92738281 -4.22789062 6.54226562 -4.95703125 7.17578125 C-6.70136739 8.73334335 -8.36778041 10.32658875 -10 12 C-9.72758599 7.36896185 -7.73496293 5.3195116 -4.5703125 2.234375 C-3 1 -3 1 0 0 Z " fill="#C33534" transform="translate(426,111)"/>
<path d="M0 0 C1.53445094 3.06890187 0.54984289 5.70094266 0 9 C-0.66 9 -1.32 9 -2 9 C-1.67 11.97 -1.34 14.94 -1 18 C-1.66 18 -2.32 18 -3 18 C-3.33278764 11.18401613 -3.24201565 6.07877934 0 0 Z " fill="#737272" transform="translate(267,73)"/>
<path d="M0 0 C0.66 0.33 1.32 0.66 2 1 C2.6328125 3.06640625 2.6328125 3.06640625 3.125 5.5625 C3.29257813 6.38878906 3.46015625 7.21507812 3.6328125 8.06640625 C3.75398437 8.70449219 3.87515625 9.34257813 4 10 C2.68 9.01 1.36 8.02 0 7 C-0.66 7.66 -1.32 8.32 -2 9 C-1.125 1.125 -1.125 1.125 0 0 Z " fill="#626160" transform="translate(169,51)"/>
<path d="M0 0 C1.32 0.33 2.64 0.66 4 1 C4.66 4.3 5.32 7.6 6 11 C3.05321567 8.05321567 1.67958081 5.75906182 0 2 C0 1.34 0 0.68 0 0 Z " fill="#541B19" transform="translate(444,100)"/>
<path d="M0 0 C6.93 0 13.86 0 21 0 C19.68 1.32 18.36 2.64 17 4 C17 3.01 17 2.02 17 1 C11.39 1 5.78 1 0 1 C0 0.67 0 0.34 0 0 Z " fill="#B73C3F" transform="translate(461,51)"/>
<path d="M0 0 C0.33 0.66 0.66 1.32 1 2 C-0.07050218 3.48847916 -1.15692244 4.9655195 -2.25 6.4375 C-3.15492188 7.67306641 -3.15492188 7.67306641 -4.078125 8.93359375 C-6.10483324 11.11271704 -7.0991395 11.64701919 -10 12 C-9.61328125 11.55269531 -9.2265625 11.10539062 -8.828125 10.64453125 C-5.81609925 7.1478974 -2.85678969 3.62592537 0 0 Z " fill="#CBCACA" transform="translate(220,34)"/>
<path d="M0 0 C0.33 0.66 0.66 1.32 1 2 C-1.51407619 6.28324091 -3.12314139 8.64531705 -8 10 C-6.34908222 5.70761377 -3.26245434 3.1206085 0 0 Z " fill="#B63033" transform="translate(411,106)"/>
<path d="M0 0 C0.99 1.32 1.98 2.64 3 4 C2.34 5.32 1.68 6.64 1 8 C-2.63 8 -6.26 8 -10 8 C-10 7.67 -10 7.34 -10 7 C-5.545 6.505 -5.545 6.505 -1 6 C-0.67 4.02 -0.34 2.04 0 0 Z " fill="#E63736" transform="translate(466,101)"/>
<path d="M0 0 C0.99 0 1.98 0 3 0 C3.53229326 1.26607607 4.05044544 2.53810412 4.5625 3.8125 C4.85253906 4.52019531 5.14257812 5.22789063 5.44140625 5.95703125 C6 8 6 8 5 11 C4.16151196 9.54462432 3.32936066 8.08559627 2.5 6.625 C1.80390625 5.40683594 1.80390625 5.40683594 1.09375 4.1640625 C0 2 0 2 0 0 Z " fill="#6E1C1A" transform="translate(465,97)"/>
<path d="M0 0 C0 4.07746885 -1.52068051 5.83198065 -4 9 C-6.25 9.875 -6.25 9.875 -8 10 C-5.61820737 6.25718301 -3.25524265 3.02272532 0 0 Z " fill="#76211C" transform="translate(437,99)"/>
<path d="M0 0 C0.556875 0.226875 1.11375 0.45375 1.6875 0.6875 C-1.87991255 3.17639248 -5.20291233 5.23705729 -9.3125 6.6875 C-7.70234959 2.442558 -4.80443663 -0.64924819 0 0 Z " fill="#544E4E" transform="translate(405.3125,67.3125)"/>
<path d="M0 0 C0.66 0.33 1.32 0.66 2 1 C0.71451591 2.33929505 -0.57858155 3.67128643 -1.875 5 C-2.59429687 5.7425 -3.31359375 6.485 -4.0546875 7.25 C-6 9 -6 9 -8 9 C-6.4169423 4.7257442 -3.49431596 2.73468206 0 0 Z " fill="#C5C2C2" transform="translate(262,55)"/>
<path d="M0 0 C0 3.10551666 -0.5393715 4.35261084 -2 7 C-3.32 7 -4.64 7 -6 7 C-6 5.35 -6 3.7 -6 2 C-5.67 2.66 -5.34 3.32 -5 4 C-4.01 4 -3.02 4 -2 4 C-1.34 2.68 -0.68 1.36 0 0 Z " fill="#B82A29" transform="translate(452,61)"/>
<path d="M0 0 C0.66 0.33 1.32 0.66 2 1 C0.02 3.31 -1.96 5.62 -4 8 C-4.99 7.67 -5.98 7.34 -7 7 C-6.34 7 -5.68 7 -5 7 C-4.9175 6.401875 -4.835 5.80375 -4.75 5.1875 C-3.79544128 2.4033704 -2.42867729 1.56688858 0 0 Z " fill="#501516" transform="translate(393,123)"/>
<path d="M0 0 C0.33 1.32 0.66 2.64 1 4 C0.34 4 -0.32 4 -1 4 C-1.33 4.99 -1.66 5.98 -2 7 C-2.99 7 -3.98 7 -5 7 C-3.70700306 4.11562221 -2.34058637 2.12780579 0 0 Z " fill="#4C4A4C" transform="translate(206,71)"/>
<path d="M0 0 C0.66 0 1.32 0 2 0 C0.55746343 3.36591866 -1.33264727 5.51047079 -4 8 C-4.99 7.67 -5.98 7.34 -7 7 C-6.21625 6.401875 -5.4325 5.80375 -4.625 5.1875 C-1.85425677 3.08914751 -1.85425677 3.08914751 0 0 Z " fill="#E6332E" transform="translate(398,123)"/>
<path d="M0 0 C0.99 0.33 1.98 0.66 3 1 C3.33 3.64 3.66 6.28 4 9 C3.34 9 2.68 9 2 9 C1.34 6.03 0.68 3.06 0 0 Z " fill="#3F1A16" transform="translate(463,88)"/>
<path d="M0 0 C0.66 0 1.32 0 2 0 C1.71812064 1.79323253 1.4241719 3.58457126 1.125 5.375 C0.96257812 6.37273438 0.80015625 7.37046875 0.6328125 8.3984375 C0 11 0 11 -2 13 C-1.85966889 11.02043559 -1.7125877 9.04134859 -1.5625 7.0625 C-1.48128906 5.96035156 -1.40007812 4.85820313 -1.31640625 3.72265625 C-1 1 -1 1 0 0 Z " fill="#8E8D8C" transform="translate(223,52)"/>
<path d="M0 0 C1.45047396 2.90094791 0.45356803 4.55972596 -0.4375 7.625 C-0.86869141 9.12933594 -0.86869141 9.12933594 -1.30859375 10.6640625 C-1.53675781 11.43492188 -1.76492188 12.20578125 -2 13 C-3.1171875 11.296875 -3.1171875 11.296875 -4 9 C-3.3203125 6.640625 -3.3203125 6.640625 -2.125 4.25 C-1.73570312 3.45078125 -1.34640625 2.6515625 -0.9453125 1.828125 C-0.63335937 1.22484375 -0.32140625 0.6215625 0 0 Z " fill="#DDDADC" transform="translate(360,38)"/>
<path d="M0 0 C0.33 0 0.66 0 1 0 C0.88610125 1.79240663 0.75852313 3.58394835 0.625 5.375 C0.52058594 6.87160156 0.52058594 6.87160156 0.4140625 8.3984375 C0 11 0 11 -2 13 C-2.05416188 11.39620659 -2.09286638 9.79188594 -2.125 8.1875 C-2.14820313 7.29417969 -2.17140625 6.40085937 -2.1953125 5.48046875 C-2 3 -2 3 0 0 Z " fill="#606260" transform="translate(153,36)"/>
<path d="M0 0 C0.66 0 1.32 0 2 0 C4.04169485 2.90548882 5 4.40142046 5 8 C4.34 8 3.68 8 3 8 C0 2.25 0 2.25 0 0 Z " fill="#481815" transform="translate(441,50)"/>
</svg>
