<?xml version="1.0" encoding="UTF-8"?>
<svg version="1.1" xmlns="http://www.w3.org/2000/svg" width="640" height="640">
<path d="M0 0 C211.2 0 422.4 0 640 0 C640 211.2 640 422.4 640 640 C428.8 640 217.6 640 0 640 C0 428.8 0 217.6 0 0 Z " fill="#FD0E00" transform="translate(0,0)"/>
<path d="M0 0 C207.9 0 415.8 0 630 0 C630 19.47 630 38.94 630 59 C488.76 59 347.52 59 202 59 C202 212.78 202 366.56 202 525 C135.34 525 68.68 525 0 525 C0 351.75 0 178.5 0 0 Z " fill="#FFFFFF" transform="translate(5,5)"/>
<path d="M0 0 C46.2 0 92.4 0 140 0 C140 153.78 140 307.56 140 466 C93.8 466 47.6 466 0 466 C0 312.22 0 158.44 0 0 Z " fill="#000000" transform="translate(207,64)"/>
<path d="M0 0 C48.84 0 97.68 0 148 0 C148 118.8 148 237.6 148 360 C99.16 360 50.32 360 0 360 C0 241.2 0 122.4 0 0 Z " fill="#FEFDFD" transform="translate(347,171)"/>
<path d="M0 0 C211.2 0 422.4 0 640 0 C640 211.2 640 422.4 640 640 C428.8 640 217.6 640 0 640 C0 428.8 0 217.6 0 0 Z M5 5 C5 212.9 5 420.8 5 635 C212.9 635 420.8 635 635 635 C635 427.1 635 219.2 635 5 C427.1 5 219.2 5 5 5 Z " fill="#000000" transform="translate(0,0)"/>
<path d="M0 0 C95.04 0 190.08 0 288 0 C288 0.33 288 0.66 288 1 C286.89792709 1.00879936 286.89792709 1.00879936 285.77359009 1.01777649 C278.85742298 1.07562454 271.94153423 1.14765539 265.02569008 1.23571491 C261.46994914 1.28048727 257.91432459 1.31972762 254.35839844 1.34643555 C250.2724885 1.37736438 246.18720453 1.43215504 242.1015625 1.48828125 C240.82133209 1.49467117 239.54110168 1.5010611 238.22207642 1.50764465 C237.04100311 1.52743881 235.85992981 1.54723297 234.64306641 1.56762695 C233.07753525 1.58428154 233.07753525 1.58428154 231.4803772 1.60127258 C230.25259048 1.79864265 230.25259048 1.79864265 229 2 C228.34 2.99 227.68 3.98 227 5 C224.01791907 5.30642883 221.24140534 5.41544592 218.25558472 5.39872742 C217.33916014 5.40537424 216.42273556 5.41202107 215.47854054 5.41886932 C212.38906582 5.43761216 209.29997453 5.43488647 206.21044922 5.43237305 C204.00328011 5.44138332 201.79611603 5.45170871 199.58895874 5.46325684 C193.58099127 5.49093924 187.57311844 5.50012657 181.56509542 5.50611091 C175.29231069 5.51546542 169.01959748 5.54166632 162.74685669 5.56611633 C152.2132487 5.60488947 141.67965239 5.63320878 131.14599609 5.65356445 C120.29505672 5.67456178 109.44416304 5.70182592 98.59326172 5.73754883 C97.59041938 5.74084707 97.59041938 5.74084707 96.56731759 5.74421193 C93.21342655 5.75528127 89.85953594 5.76647414 86.50564551 5.77772844 C58.67046913 5.87069554 30.83527028 5.94232093 3 6 C2.38016742 9.45492932 1.87472482 12.77932678 1.84178162 16.29013062 C1.8319928 17.08930908 1.82220398 17.88848755 1.81211853 18.71188354 C1.80636307 19.56928131 1.8006076 20.42667908 1.79467773 21.31005859 C1.78477814 22.22777039 1.77487854 23.14548218 1.76467896 24.09100342 C1.73321041 27.11012229 1.70836466 30.12925687 1.68359375 33.1484375 C1.66301157 35.24736936 1.64201477 37.3462972 1.62062073 39.44522095 C1.56553064 44.95905284 1.51606392 50.47292133 1.46777344 55.98681641 C1.41746284 61.617546 1.36182674 67.2482227 1.30664062 72.87890625 C1.1992189 83.91922561 1.09773865 94.95959097 1 106 C5.62 106 10.24 106 15 106 C15 106.33 15 106.66 15 107 C10.05 107 5.1 107 0 107 C0 71.69 0 36.38 0 0 Z " fill="#FD2A1A" transform="translate(347,64)"/>
</svg>
