<?xml version="1.0" encoding="UTF-8"?>
<svg version="1.1" xmlns="http://www.w3.org/2000/svg" width="749" height="263">
<path d="M0 0 C247.17 0 494.34 0 749 0 C749 86.79 749 173.58 749 263 C501.83 263 254.66 263 0 263 C0 176.21 0 89.42 0 0 Z " fill="#F9F9F8" transform="translate(0,0)"/>
<path d="M0 0 C57.42 0 114.84 0 174 0 C174 57.42 174 114.84 174 174 C116.58 174 59.16 174 0 174 C0 116.58 0 59.16 0 0 Z " fill="#FB0F02" transform="translate(18,55)"/>
<path d="M0 0 C10.23 0 20.46 0 31 0 C33.93482104 6.45660629 36.81291768 12.81337986 39.3828125 19.40234375 C39.67900986 20.15466782 39.97520721 20.90699188 40.28038025 21.68211365 C41.23136969 24.09949318 42.17827048 26.51844936 43.125 28.9375 C43.78938313 30.62916684 44.45401823 32.32073474 45.11889648 34.01220703 C46.45200843 37.40485465 47.78353086 40.79811934 49.11376953 44.19189453 C50.80849072 48.51427699 52.51016467 52.83388057 54.21484375 57.15234375 C58.91338731 69.06395635 63.5774831 80.98269668 68 93 C70.3130219 90.6869781 70.84958372 89.03978442 71.93359375 85.96484375 C72.32595215 84.86897949 72.71831055 83.77311523 73.12255859 82.64404297 C73.77345459 80.8093042 73.77345459 80.8093042 74.4375 78.9375 C79.68709051 64.32781258 85.25626788 49.84611291 90.875 35.375 C91.28877899 34.30724335 91.70255798 33.23948669 92.12887573 32.13937378 C93.33132824 29.03745311 94.53622664 25.9364957 95.7421875 22.8359375 C96.09711777 21.9211412 96.45204803 21.00634491 96.81773376 20.06382751 C99.44494311 13.32761657 102.2170108 6.67917407 105 0 C115.23 0 125.46 0 136 0 C136 42.57 136 85.14 136 129 C127.42 129 118.84 129 110 129 C109.67 102.93 109.34 76.86 109 50 C97.51336104 77.86242216 97.51336104 77.86242216 86.25 105.8125 C85.56006877 107.54238669 84.86996371 109.27220406 84.1796875 111.00195312 C82.94328514 114.10090097 81.70777761 117.20020124 80.47363281 120.30004883 C79.31822265 123.20101651 78.15970187 126.10074532 77 129 C70.4 129 63.8 129 57 129 C55.60201172 125.55046875 55.60201172 125.55046875 54.17578125 122.03125 C52.88808501 118.85414065 51.60029822 115.67706801 50.3125 112.5 C49.97697113 111.67221039 49.64144226 110.84442078 49.29574585 109.99154663 C45.61707519 100.91622243 41.9369985 91.84147581 38.25 82.76953125 C37.95667282 82.04776703 37.66334564 81.32600281 37.36112976 80.58236694 C35.979235 77.18233444 34.59693394 73.78246774 33.21411133 70.3828125 C32.71174644 69.14713739 32.20938616 67.91146041 31.70703125 66.67578125 C31.2788208 65.62302002 30.85061035 64.57025879 30.40942383 63.4855957 C28.59379411 58.99542674 26.79877846 54.49694615 25 50 C24.67 76.07 24.34 102.14 24 129 C16.08 129 8.16 129 0 129 C0 86.43 0 43.86 0 0 Z " fill="#040404" transform="translate(220,55)"/>
<path d="M0 0 C56.1 0 112.2 0 170 0 C170 5.28 170 10.56 170 16 C113.075 16.495 113.075 16.495 55 17 C54.67 58.58 54.34 100.16 54 143 C36.18 143 18.36 143 0 143 C0 95.81 0 48.62 0 0 Z " fill="#FDFDFD" transform="translate(20,56)"/>
<path d="M0 0 C1.56911133 -0.01160156 1.56911133 -0.01160156 3.16992188 -0.0234375 C14.58654347 0.00526551 25.13071043 2.51867669 33.875 10.3125 C42.46828608 20.06086036 42.80418215 31.52522403 42.76953125 43.828125 C42.78267449 45.49251087 42.79798667 47.15688087 42.81535339 48.82122803 C42.85490988 53.16128087 42.86537468 57.50091371 42.86938477 61.84112549 C42.87877212 66.28613796 42.9162201 70.7309093 42.95117188 75.17578125 C43.01544844 83.86723387 43.04633386 92.55832464 43.0625 101.25 C34.4825 101.25 25.9025 101.25 17.0625 101.25 C16.21521797 97.01358987 15.97865922 93.52587998 16.0625 89.25 C15.4025 89.25 14.7425 89.25 14.0625 89.25 C13.8046875 89.848125 13.546875 90.44625 13.28125 91.0625 C10.10447576 96.76440248 3.05694987 100.35331625 -2.89453125 102.55859375 C-11.98282629 104.62358505 -22.6186322 104.64487355 -30.9375 100.25 C-31.96875 99.71375 -33 99.1775 -34.0625 98.625 C-38.66426499 94.82354196 -42.04608038 89.92425885 -43.9375 84.25 C-44.66238447 75.03361174 -45.20136131 66.69934913 -38.9375 59.25 C-29.9148275 48.80140105 -15.52404405 46.1398591 -2.69580078 43.34179688 C6.46432665 41.43810552 6.46432665 41.43810552 14.0625 36.25 C14.54158843 31.45911569 14.54568237 29.18185172 12.3125 24.875 C9.37120947 21.44349438 7.54119417 20.41429935 3.0390625 19.9140625 C-5.78881162 19.72175992 -5.78881162 19.72175992 -12.9375 24.25 C-15.50623679 27.63569507 -15.50623679 27.63569507 -15.9375 34.25 C-24.8475 34.25 -33.7575 34.25 -42.9375 34.25 C-41.78372157 22.71221575 -39.47926533 16.90017207 -31.1796875 9.0390625 C-21.72661102 1.49636385 -11.71240644 -0.08627924 0 0 Z " fill="#050505" transform="translate(417.9375,82.75)"/>
<path d="M0 0 C27.41031599 -2.51892981 27.41031599 -2.51892981 34.45019531 1.34472656 C38.11435898 4.84260727 40.10624969 9.1384122 42.01855469 13.77099609 C43.62557778 17.4207774 45.85407875 20.63031188 48.0625 23.9375 C48.78257729 25.0924322 49.50263165 26.2473787 50.22265625 27.40234375 C51.74124338 30.07297291 51.74124338 30.07297291 54 31 C54.10497803 30.46987305 54.20995605 29.93974609 54.31811523 29.39355469 C57.14329999 19.47657964 64.27662256 5.96534028 73 0 C82.72916318 -3.83480993 94.98904551 -1.61749449 105 0 C104.22008477 3.50004065 103.07239095 5.51173301 100.875 8.375 C96.62056823 14.0756325 92.61373555 19.92334603 88.625 25.8125 C82.86893099 34.29709057 77.01938581 42.70032921 71 51 C74.99970638 57.48958983 79.2098766 63.77808403 83.67114258 69.95922852 C89.27821383 77.74239468 94.72742065 85.63560322 100.19140625 93.51953125 C102.45192343 96.78024756 104.72432599 100.03088912 107.02734375 103.26171875 C107.4545874 103.86491943 107.88183105 104.46812012 108.32202148 105.08959961 C109.40798779 106.62030569 110.5005674 108.14631421 111.59375 109.671875 C113 112 113 112 113 115 C86.54221388 116.2195122 86.54221388 116.2195122 76.90625 108.2734375 C72.97547142 104.08405507 70.04118018 99.10075311 67.04296875 94.22265625 C64.03488712 89.47759441 60.79908713 84.89325704 57.55566406 80.30664062 C54 75.21574582 54 75.21574582 54 73 C50.28482897 76.50584838 47.35311375 80.14840716 44.56640625 84.4375 C43.74431321 85.67459387 42.92204213 86.91156945 42.09960938 88.1484375 C40.82837379 90.07504276 39.56017483 92.00355071 38.2956543 93.93457031 C37.06050369 95.81592872 35.81409462 97.6894413 34.56640625 99.5625 C34.19745743 100.13347412 33.82850861 100.70444824 33.44837952 101.29272461 C28.91174784 108.07723345 23.53374065 111.84411212 15.7890625 114.28515625 C7.95217999 115.76366089 -0.0615636 115.28239497 -8 115 C-7.50099977 110.29391166 -5.57711829 107.81478731 -2.625 104.1875 C1.19484018 99.39066753 4.80528037 94.51058636 8.25 89.4375 C9.16397563 88.09369091 10.07804103 86.74994288 10.9921875 85.40625 C11.47010742 84.70371094 11.94802734 84.00117188 12.44042969 83.27734375 C15.38666022 78.97514613 18.38246526 74.70755647 21.375 70.4375 C21.95797852 69.60468506 22.54095703 68.77187012 23.14160156 67.91381836 C23.98029785 66.71704468 23.98029785 66.71704468 24.8359375 65.49609375 C25.36799805 64.72894043 25.90005859 63.96178711 26.44824219 63.17138672 C27.44644998 61.77458682 28.48157548 60.40308161 29.55957031 59.06689453 C31.77275469 56.28401727 32.98304771 54.57269262 33.08984375 50.96484375 C31.7704796 47.37560579 29.86974867 44.5650365 27.5625 41.5625 C26.64493923 40.32584523 25.72964357 39.0875072 24.81640625 37.84765625 C24.34734863 37.21359863 23.87829102 36.57954102 23.39501953 35.92626953 C21.16588752 32.84824161 19.0848247 29.67675733 17 26.5 C13.58817038 21.33113569 10.09594277 16.23020692 6.5 11.1875 C6.07847656 10.59453125 5.65695312 10.0015625 5.22265625 9.390625 C3.5843696 7.10776656 1.9906129 4.9906129 0 3 C0 2.01 0 1.02 0 0 Z " fill="#EF0504" transform="translate(628,82)"/>
<path d="M0 0 C12.21 0 24.42 0 37 0 C37 41.58 37 83.16 37 126 C24.79 126 12.58 126 0 126 C0 84.42 0 42.84 0 0 Z " fill="#000000" transform="translate(75,73)"/>
<path d="M0 0 C0 7.59 0 15.18 0 23 C7.92 23 15.84 23 24 23 C24 29.6 24 36.2 24 43 C16.08 43 8.16 43 0 43 C0.0968851 50.33267245 0.19958715 57.66477305 0.31738281 64.99707031 C0.35568354 67.49181112 0.39053446 69.98660736 0.421875 72.48144531 C0.46750124 76.06595685 0.5255006 79.6500864 0.5859375 83.234375 C0.59748871 84.35116638 0.60903992 85.46795776 0.62094116 86.61859131 C0.64081085 87.65936829 0.66068054 88.70014526 0.68115234 89.77246094 C0.69447601 90.68735291 0.70779968 91.60224487 0.7215271 92.54486084 C1.01696903 95.1496064 1.62661814 96.78129628 3 99 C6.48622058 101.57316281 10.57385713 101.43484762 14.75 101.625 C18.33875 101.810625 18.33875 101.810625 22 102 C22 108.93 22 115.86 22 123 C16.40928224 123.93178629 11.31836287 124.21811967 5.6875 124.25 C4.78837891 124.270625 3.88925781 124.29125 2.96289062 124.3125 C-5.74798105 124.36288827 -13.07048873 122.47914845 -20 117 C-26.13080303 110.51886537 -28.13281485 102.89949905 -28.11352539 94.19995117 C-28.11344986 93.05914597 -28.11337433 91.91834076 -28.11329651 90.7429657 C-28.10813522 89.52196671 -28.10297394 88.30096771 -28.09765625 87.04296875 C-28.0962413 85.78486893 -28.09482635 84.5267691 -28.09336853 83.23054504 C-28.08872573 79.89821471 -28.07975228 76.56595368 -28.06866455 73.23364258 C-28.05840503 69.82829383 -28.05386121 66.4229379 -28.04882812 63.01757812 C-28.03780829 56.34503055 -28.02054835 49.67252476 -28 43 C-32.29 43 -36.58 43 -41 43 C-41 38.05 -41 33.1 -41 28 C-37.74479167 26.37239583 -34.48958333 24.74479167 -31.234375 23.1171875 C-25.63013224 19.44870975 -23.67055751 15.01750879 -22.25 8.625 C-22.00765625 7.56539063 -21.7653125 6.50578125 -21.515625 5.4140625 C-21.34546875 4.61742188 -21.1753125 3.82078125 -21 3 C-18.25071558 2.49576443 -15.50068857 1.99646574 -12.75 1.5 C-11.97269531 1.35691406 -11.19539063 1.21382812 -10.39453125 1.06640625 C-9.64042969 0.93105469 -8.88632812 0.79570313 -8.109375 0.65625 C-7.07248535 0.46772461 -7.07248535 0.46772461 -6.01464844 0.27539062 C-4 0 -4 0 0 0 Z " fill="#050505" transform="translate(512,61)"/>
<path d="M0 0 C13.53 0 27.06 0 41 0 C41 32.34 41 64.68 41 98 C27.47 98 13.94 98 0 98 C0 65.66 0 33.32 0 0 Z " fill="#FCF8F7" transform="translate(112,101)"/>
<path d="M0 0 C0 8.25 0 16.5 0 25 C-3.96 25.33 -7.92 25.66 -12 26 C-19.28242043 28.67329358 -25.24541454 31.60531841 -29.1463623 38.65286255 C-31.04089625 43.86201815 -30.60419288 49.55194163 -30.609375 55.02734375 C-30.62437441 56.38499406 -30.64110524 57.74262623 -30.65948486 59.10023499 C-30.70297423 62.65281055 -30.72311599 66.20514007 -30.73822021 69.75793457 C-30.75785837 73.39150275 -30.79960683 77.02481429 -30.83984375 80.65820312 C-30.91701635 87.77229862 -30.95756203 94.8852737 -31 102 C-40.24 102 -49.48 102 -59 102 C-59 69 -59 36 -59 2 C-51.08 2 -43.16 2 -35 2 C-33.59330266 7.62678937 -32.60376378 12.36487141 -32 18 C-31.47212891 17.12988281 -31.47212891 17.12988281 -30.93359375 16.2421875 C-22.72945744 3.26123031 -15.86064687 0 0 0 Z " fill="#050505" transform="translate(617,82)"/>
<path d="M0 0 C57.42 0 114.84 0 174 0 C174 57.42 174 114.84 174 174 C116.58 174 59.16 174 0 174 C0 116.58 0 59.16 0 0 Z M2 1 C2 57.43 2 113.86 2 172 C58.1 172 114.2 172 172 172 C172 115.57 172 59.14 172 1 C115.9 1 59.8 1 2 1 Z " fill="#482C2A" transform="translate(18,55)"/>
<path d="M0 0 C0.92867303 15.84935301 0.92867303 15.84935301 -3.37109375 21.484375 C-8.82572735 26.55966958 -15.72671216 28.31792461 -23.03515625 28.22265625 C-25.93364909 27.89419881 -27.73974161 26.79491107 -30 25 C-32.47495017 21.28757475 -32.7675149 18.30298246 -32 14 C-26.53819396 4.83826084 -15.92863627 3.2741873 -6.2578125 0.734375 C-3 0 -3 0 0 0 Z " fill="#F4F4F4" transform="translate(433,138)"/>
<path d="M0 0 C1.98 0 3.96 0 6 0 C6.5775 1.03125 7.155 2.0625 7.75 3.125 C9.68979442 6.52656807 11.79209563 9.76699717 14 13 C15.98 9.04 17.96 5.08 20 1 C21.98 1 23.96 1 26 1 C26 8.92 26 16.84 26 25 C24.35 25 22.7 25 21 25 C20.67 21.04 20.34 17.08 20 13 C18.35 15.64 16.7 18.28 15 21 C11 20 11 20 9.515625 17.93359375 C8.34375 15.62239583 7.171875 13.31119792 6 11 C5.67 15.62 5.34 20.24 5 25 C3.35 25 1.7 25 0 25 C0 16.75 0 8.5 0 0 Z " fill="#161616" transform="translate(438,203)"/>
<path d="M0 0 C1.65 0 3.3 0 5 0 C7.01975125 2.14653855 8.63759782 4.11295423 10.3125 6.5 C10.76689453 7.12003906 11.22128906 7.74007812 11.68945312 8.37890625 C12.80744812 9.90879414 13.90568532 11.45308527 15 13 C15.33 8.71 15.66 4.42 16 0 C17.65 0 19.3 0 21 0 C21 8.25 21 16.5 21 25 C15.21914495 23.84382899 13.88952316 21.93930737 10.6875 17.4375 C10.0059082 16.51420898 10.0059082 16.51420898 9.31054688 15.57226562 C8.19475681 14.05714017 7.09569629 12.52971967 6 11 C5.67 15.62 5.34 20.24 5 25 C3.35 25 1.7 25 0 25 C0 16.75 0 8.5 0 0 Z " fill="#0D0D0D" transform="translate(567,203)"/>
<path d="M0 0 C1.29550781 -0.03867188 1.29550781 -0.03867188 2.6171875 -0.078125 C5.57524649 0.30891076 6.91701784 1.29875995 9.125 3.25 C8.465 4.57 7.805 5.89 7.125 7.25 C6.609375 7.085 6.09375 6.92 5.5625 6.75 C2.32223486 6.08533023 -0.5777333 6.00575802 -3.875 6.25 C-6.34842266 9.96013399 -6.26003486 11.86060262 -5.875 16.25 C-4.97264165 18.73105194 -4.97264165 18.73105194 -2.875 20.25 C0.72965748 21.06314911 0.72965748 21.06314911 4.125 21.25 C4.125 19.6 4.125 17.95 4.125 16.25 C2.805 16.25 1.485 16.25 0.125 16.25 C0.125 14.93 0.125 13.61 0.125 12.25 C3.425 12.25 6.725 12.25 10.125 12.25 C10.125 16.21 10.125 20.17 10.125 24.25 C4.02683959 26.24123605 -1.08582288 27.64458856 -7.125 24.625 C-10.28028959 21.89997717 -11.60017404 20.22445739 -12.875 16.25 C-13.162481 11.39766924 -12.53717818 7.57630897 -9.4375 3.75 C-6.08665562 0.48088354 -4.55614129 0.08111824 0 0 Z " fill="#101010" transform="translate(516.875,202.75)"/>
<path d="M0 0 C1.2065625 0.0309375 1.2065625 0.0309375 2.4375 0.0625 C11.4375 19.52060056 11.4375 19.52060056 11.4375 25.0625 C9.4575 25.0625 7.4775 25.0625 5.4375 25.0625 C4.9425 22.5875 4.9425 22.5875 4.4375 20.0625 C2.97802295 20.12256078 1.51970728 20.2113689 0.0625 20.3125 C-0.74960937 20.35890625 -1.56171875 20.4053125 -2.3984375 20.453125 C-4.75088927 20.8547092 -4.75088927 20.8547092 -5.8515625 23.109375 C-6.08617187 23.75390625 -6.32078125 24.3984375 -6.5625 25.0625 C-8.2125 25.0625 -9.8625 25.0625 -11.5625 25.0625 C-5.41733871 0.13213021 -5.41733871 0.13213021 0 0 Z " fill="#121212" transform="translate(485.5625,202.9375)"/>
<path d="M0 0 C5.94 0 11.88 0 18 0 C18 1.65 18 3.3 18 5 C14.04 5 10.08 5 6 5 C6 6.98 6 8.96 6 11 C8.97 11 11.94 11 15 11 C15 12.32 15 13.64 15 15 C12.03 15 9.06 15 6 15 C6 16.98 6 18.96 6 21 C9.96 21 13.92 21 18 21 C18 22.32 18 23.64 18 25 C12.06 25 6.12 25 0 25 C0 16.75 0 8.5 0 0 Z " fill="#171717" transform="translate(538,203)"/>
<path d="M0 0 C10.56 0 21.12 0 32 0 C31.02068314 3.91726746 30.25072136 5.27936307 27.875 8.375 C23.62056823 14.0756325 19.61373555 19.92334603 15.625 25.8125 C9.86893099 34.29709057 4.01938581 42.70032921 -2 51 C-2.68359375 49.21875 -2.68359375 49.21875 -3 47 C-1.78515625 45.21875 -1.78515625 45.21875 -0.0625 43.5 C2.82819355 40.60272172 3 40.42074306 3 36 C3.60714844 35.90976563 4.21429687 35.81953125 4.83984375 35.7265625 C8.77555418 34.40279733 10.14042452 30.50839906 12 27 C13.09073667 24.68867706 14.05852995 22.37845065 15 20 C15.99 20 16.98 20 18 20 C18 18.68 18 17.36 18 16 C18.66 16 19.32 16 20 16 C20 15.34 20 14.68 20 14 C20.45375 13.566875 20.9075 13.13375 21.375 12.6875 C23.33874194 10.64822952 23.96944589 8.61073707 25 6 C25.66 5.67 26.32 5.34 27 5 C27.33 4.01 27.66 3.02 28 2 C23.56198004 2.10964677 19.12482564 2.24033154 14.6875 2.375 C12.79354492 2.42140625 12.79354492 2.42140625 10.86132812 2.46875 C9.04858398 2.52675781 9.04858398 2.52675781 7.19921875 2.5859375 C6.08377686 2.6173584 4.96833496 2.6487793 3.8190918 2.68115234 C0.79631214 2.805249 0.79631214 2.805249 -2 5 C-1.34 3.35 -0.68 1.7 0 0 Z " fill="#C81C1C" transform="translate(701,82)"/>
<path d="M0 0 C1.98 0 3.96 0 6 0 C6 7.92 6 15.84 6 24 C4.35 24 2.7 24 1 24 C0.67 20.04 0.34 16.08 0 12 C-1.65 12.33 -3.3 12.66 -5 13 C-4.48474397 7.71862571 -2.74522883 4.42778844 0 0 Z " fill="#0F0F10" transform="translate(458,204)"/>
<path d="M0 0 C10.23 0 20.46 0 31 0 C31 42.57 31 85.14 31 129 C30.67 129 30.34 129 30 129 C30 86.76 30 44.52 30 1 C13.63151332 -0.19407217 13.63151332 -0.19407217 -1 4 C-0.67 2.68 -0.34 1.36 0 0 Z " fill="#191919" transform="translate(325,55)"/>
<path d="M0 0 C0.75 1.75 0.75 1.75 1 4 C0.071875 4.8353125 0.071875 4.8353125 -0.875 5.6875 C-3.98700606 9.07409483 -3.80936774 12.53920509 -4 17 C-2.35 17 -0.7 17 1 17 C1.33 15.68 1.66 14.36 2 13 C2.66 13.33 3.32 13.66 4 14 C4 14.99 4 15.98 4 17 C9.28 16.34 14.56 15.68 20 15 C14.77889691 20.22110309 7.12817 20.16801941 0.14794922 20.20654297 C-3.90266283 20.17872577 -7.9509162 20.11493033 -12 20 C-11.55608704 15.07071655 -9.02211594 12.01878941 -6 8.3125 C-2.69825171 4.35649525 -2.69825171 4.35649525 0 0 Z " fill="#E50907" transform="translate(632,177)"/>
<path d="M0 0 C4.66308199 -0.02468646 9.32612608 -0.04285349 13.98925781 -0.05493164 C15.57617861 -0.05996588 17.16309477 -0.06679369 18.75 -0.07543945 C21.02865749 -0.08754482 23.30725376 -0.09323733 25.5859375 -0.09765625 C26.65320572 -0.10539818 26.65320572 -0.10539818 27.74203491 -0.11329651 C32.77225659 -0.11387171 32.77225659 -0.11387171 35 1 C35 2.98 35 4.96 35 7 C34.38125 7.20625 33.7625 7.4125 33.125 7.625 C30.12926471 9.56341695 29.89502539 11.62644275 29 15 C28.67 15.99 28.34 16.98 28 18 C27.01 18 26.02 18 25 18 C25 19.32 25 20.64 25 22 C24.01 22 23.02 22 22 22 C23.41996102 17.92500769 25.40234821 14.87079345 28 11.4375 C30.36992587 8.29647693 32.22983184 5.54033633 34 2 C23.44 2 12.88 2 2 2 C1.34 3.65 0.68 5.3 0 7 C-1.625 8.8125 -1.625 8.8125 -3 10 C-3.33 8.68 -3.66 7.36 -4 6 C-3.01 5.67 -2.02 5.34 -1 5 C-0.67 3.35 -0.34 1.7 0 0 Z " fill="#FDD6D4" transform="translate(699,80)"/>
<path d="M0 0 C1.65 0 3.3 0 5 0 C5 8.25 5 16.5 5 25 C3.35 25 1.7 25 0 25 C0 16.75 0 8.5 0 0 Z " fill="#090909" transform="translate(420,203)"/>
<path d="M0 0 C2.67007782 0.36358506 3.72519889 0.64776874 5.4140625 2.8125 C5.81367187 3.534375 6.21328125 4.25625 6.625 5 C8.23227894 8.09166609 8.23227894 8.09166609 11 10 C11 10.66 11 11.32 11 12 C11.66 12 12.32 12 13 12 C13.33 13.65 13.66 15.3 14 17 C14.66 17 15.32 17 16 17 C16.66 18.98 17.32 20.96 18 23 C18.66 23 19.32 23 20 23 C20 23.99 20 24.98 20 26 C20.99 26.33 21.98 26.66 23 27 C23.33 27.99 23.66 28.98 24 30 C24.66 30.33 25.32 30.66 26 31 C27.05008653 32.97416268 28.04987876 34.97582866 29 37 C29.33 37.66 29.66 38.32 30 39 C26.90428439 37.66264094 25.22771298 36.37946443 23.26953125 33.64453125 C22.50116943 32.57452881 22.50116943 32.57452881 21.71728516 31.48291016 C18.32731557 26.58157511 14.98973412 21.64836309 11.6875 16.6875 C10.59598633 15.06231445 10.59598633 15.06231445 9.48242188 13.40429688 C8.79083984 12.36724609 8.09925781 11.33019531 7.38671875 10.26171875 C6.75983154 9.32287842 6.13294434 8.38403809 5.48706055 7.41674805 C4 5 4 5 3 2 C1.35 3.32 -0.3 4.64 -2 6 C-2 4.68 -2 3.36 -2 2 C-1.34 2 -0.68 2 0 2 C0 1.34 0 0.68 0 0 Z " fill="#C91F21" transform="translate(679,153)"/>
<path d="M0 0 C3.41640563 3.18916764 6.10476805 6.73251432 8.75 10.5625 C9.16121094 11.13935547 9.57242188 11.71621094 9.99609375 12.31054688 C13 16.63677066 13 16.63677066 13 20 C-9.80127986 20.82555811 -9.80127986 20.82555811 -19 16 C-16.45772258 15.05841577 -15.36914025 14.84170202 -12.83203125 15.9296875 C-8.77540595 17.4628121 -4.98236545 17.21313457 -0.6875 17.125 C0.56643555 17.11146484 0.56643555 17.11146484 1.84570312 17.09765625 C3.89725969 17.07420989 5.94866777 17.03834266 8 17 C6.89134642 13.24604743 6.28873254 11.28169028 3.4375 8.5 C0.62157273 5.61186947 0.27569055 3.95156455 0 0 Z " fill="#C51C1B" transform="translate(728,177)"/>
<path d="M0 0 C27.66491316 -2.54232656 27.66491316 -2.54232656 34.59521484 1.52197266 C38.66084605 5.49732337 41.47890148 10.51709089 43 16 C43 16.99 43 17.98 43 19 C40.95880212 17.38405168 38.95927063 15.7143618 37 14 C37 13.34 37 12.68 37 12 C36.34 11.67 35.68 11.34 35 11 C32.60284556 7.58866484 32 6.29387011 32 2 C17.15 1.505 17.15 1.505 2 1 C1.67 1.99 1.34 2.98 1 4 C0.67 2.68 0.34 1.36 0 0 Z " fill="#B4302E" transform="translate(628,82)"/>
<path d="M0 0 C0.33 0 0.66 0 1 0 C1.3125 2.25 1.3125 2.25 1 5 C-0.65385233 6.34919532 -2.321702 7.68133728 -4 9 C-5.34772903 12.12133744 -5.34772903 12.12133744 -6 15 C-12.41753653 14.39457203 -12.41753653 14.39457203 -14.9375 12.6875 C-16 11 -16 11 -16 7 C-16.66 6.67 -17.32 6.34 -18 6 C-17.67 4.68 -17.34 3.36 -17 2 C-16.51789062 2.78246094 -16.03578125 3.56492187 -15.5390625 4.37109375 C-14.90742187 5.38300781 -14.27578125 6.39492187 -13.625 7.4375 C-12.99851562 8.44683594 -12.37203125 9.45617187 -11.7265625 10.49609375 C-10.24183698 13.08011063 -10.24183698 13.08011063 -8 14 C-7.9071875 13.44828125 -7.814375 12.8965625 -7.71875 12.328125 C-6.80324466 9.3626838 -5.29971195 7.27254708 -3.5 4.75 C-2.8709375 3.85796875 -2.241875 2.9659375 -1.59375 2.046875 C-1.0678125 1.37140625 -0.541875 0.6959375 0 0 Z " fill="#CC1C1B" transform="translate(690,99)"/>
<path d="M0 0 C3.76482152 1.48110561 5.33436705 3.48774681 7.5625 6.8125 C8.43068359 8.09060547 8.43068359 8.09060547 9.31640625 9.39453125 C10.42853225 11.11561719 11.50023779 12.86358187 12.52734375 14.63671875 C13.85195575 16.96994559 13.85195575 16.96994559 15.48828125 18.45703125 C17.59418736 20.6064703 18.78321433 23.0349604 20.1875 25.6875 C20.71730469 26.68136719 21.24710938 27.67523438 21.79296875 28.69921875 C22.19128906 29.45847656 22.58960938 30.21773437 23 31 C18.88749713 29.62916571 17.65429108 26.81657188 15.4375 23.3125 C14.55553721 21.95042718 13.67136038 20.58978584 12.78515625 19.23046875 C12.33027832 18.53228027 11.87540039 17.8340918 11.40673828 17.11474609 C8.7346717 13.09783517 5.8906114 9.20356075 3.04858398 5.3059082 C0 1.09975841 0 1.09975841 0 0 Z " fill="#C32224" transform="translate(630,86)"/>
<path d="M0 0 C0.33 1.32 0.66 2.64 1 4 C0.38125 4.226875 -0.2375 4.45375 -0.875 4.6875 C-3.66751017 6.4122857 -3.81215288 7.96820248 -5 11 C-6.1072114 12.85691358 -7.25533117 14.68988343 -8.4375 16.5 C-10.2280843 19.25355512 -11.97435652 21.95249757 -13.53515625 24.84375 C-14.26025391 25.91109375 -14.26025391 25.91109375 -15 27 C-15.99 27 -16.98 27 -18 27 C-16.46626012 23.72309199 -14.5995995 20.81677699 -12.55859375 17.83203125 C-11.89279297 16.85685547 -11.22699219 15.88167969 -10.54101562 14.87695312 C-9.84685547 13.86568359 -9.15269531 12.85441406 -8.4375 11.8125 C-7.39045898 10.27819336 -7.39045898 10.27819336 -6.32226562 8.71289062 C-1.14425223 1.14425223 -1.14425223 1.14425223 0 0 Z " fill="#C92624" transform="translate(659,139)"/>
<path d="M0 0 C0 3 0 3 -1 6 C2.87525568 5.52288664 6.75015606 5.04294489 10.625 4.5625 C11.71941406 4.42779297 12.81382812 4.29308594 13.94140625 4.15429688 C15.00488281 4.02216797 16.06835938 3.89003906 17.1640625 3.75390625 C18.13811035 3.63345947 19.1121582 3.5130127 20.11572266 3.38891602 C23.08943875 2.98794008 26.04288465 2.50819427 29 2 C23.77889691 7.22110309 16.12817 7.16801941 9.14794922 7.20654297 C5.09733717 7.17872577 1.0490838 7.11493033 -3 7 C-2.25 2.25 -2.25 2.25 0 0 Z " fill="#C31F1E" transform="translate(623,190)"/>
<path d="M0 0 C8.58 0 17.16 0 26 0 C26 0.33 26 0.66 26 1 C20.06 1 14.12 1 8 1 C7.67 3.97 7.34 6.94 7 10 C6.401875 9.21625 5.80375 8.4325 5.1875 7.625 C3.08914751 4.85425677 3.08914751 4.85425677 0 3 C0 2.01 0 1.02 0 0 Z " fill="#E30A09" transform="translate(630,83)"/>
<path d="M0 0 C10.89 0 21.78 0 33 0 C33 0.33 33 0.66 33 1 C32.11739502 0.98839844 31.23479004 0.97679688 30.32543945 0.96484375 C27.03457865 0.94060328 23.7478254 0.95221946 20.45727539 0.98779297 C19.03638651 0.99587999 17.61534212 0.98987413 16.19458008 0.96923828 C7.989846 0.53089359 7.989846 0.53089359 0.92724609 3.84765625 C-0.33922447 5.87400916 -1.26510946 7.73104564 -2 10 C-2.66 8.68 -3.32 7.36 -4 6 C-3.01 5.67 -2.02 5.34 -1 5 C-0.67 3.35 -0.34 1.7 0 0 Z " fill="#FFEFF0" transform="translate(699,80)"/>
<path d="M0 0 C10.56 0 21.12 0 32 0 C31.67 1.32 31.34 2.64 31 4 C30.34 4.33 29.68 4.66 29 5 C29 3.68 29 2.36 29 1 C24.58258107 1.08082823 20.16654746 1.19367918 15.75 1.3125 C13.86861328 1.34633789 13.86861328 1.34633789 11.94921875 1.38085938 C10.74394531 1.41630859 9.53867187 1.45175781 8.296875 1.48828125 C6.63156738 1.52755737 6.63156738 1.52755737 4.93261719 1.56762695 C1.7499137 2.0368717 0.34626523 2.85591294 -2 5 C-1.34 3.35 -0.68 1.7 0 0 Z " fill="#B4302D" transform="translate(701,82)"/>
<path d="M0 0 C8.91 0 17.82 0 27 0 C26 7 26 7 24 10 C23.34 10 22.68 10 22 10 C22.375 7.5625 22.375 7.5625 23 5 C23.66 4.67 24.32 4.34 25 4 C25.33 3.01 25.66 2.02 26 1 C17.42 1 8.84 1 0 1 C0 0.67 0 0.34 0 0 Z " fill="#D01512" transform="translate(703,83)"/>
<path d="M0 0 C1 4 1 4 0.2890625 5.984375 C-1.17503369 8.27368904 -2.80734246 10.23038051 -4.625 12.25 C-5.25664063 12.95640625 -5.88828125 13.6628125 -6.5390625 14.390625 C-7.02117188 14.92171875 -7.50328125 15.4528125 -8 16 C-8.66 15.67 -9.32 15.34 -10 15 C-5.05 7.575 -5.05 7.575 0 0 Z " fill="#FBD8D6" transform="translate(676,160)"/>
<path d="M0 0 C0.99 0.33 1.98 0.66 3 1 C3 1.99 3 2.98 3 4 C4.175625 3.9071875 4.175625 3.9071875 5.375 3.8125 C6.674375 3.9053125 6.674375 3.9053125 8 4 C8.99 5.485 8.99 5.485 10 7 C9.125 9.6875 9.125 9.6875 8 12 C4.74451247 8.97704729 2.31022942 5.79537691 0 2 C0 1.34 0 0.68 0 0 Z " fill="#FDE4E3" transform="translate(700,135)"/>
<path d="M0 0 C3.10551666 3.10551666 3.81323934 4.89198233 5 9 C4.01 9.66 3.02 10.32 2 11 C1.34 12.32 0.68 13.64 0 15 C0 10.05 0 5.1 0 0 Z " fill="#BBBBBB" transform="translate(443,213)"/>
<path d="M0 0 C0.66 0.33 1.32 0.66 2 1 C0.89966185 2.60679516 -0.20542664 4.21033793 -1.3125 5.8125 C-1.92738281 6.70582031 -2.54226563 7.59914062 -3.17578125 8.51953125 C-4.68543988 10.57227907 -6.05615225 12.36106954 -8 14 C-8.66 14 -9.32 14 -10 14 C-9.75 11.625 -9.75 11.625 -9 9 C-7 7.8125 -7 7.8125 -5 7 C-4.67 6.34 -4.34 5.68 -4 5 C-3.34 5 -2.68 5 -2 5 C-2 3.68 -2 2.36 -2 1 C-1.34 0.67 -0.68 0.34 0 0 Z " fill="#C71E21" transform="translate(662,178)"/>
<path d="M0 0 C1.32 0 2.64 0 4 0 C2.61219205 3.89006773 0.7847773 6.96558708 -1.625 10.3125 C-2.25664063 11.19550781 -2.88828125 12.07851562 -3.5390625 12.98828125 C-4.02117188 13.65214844 -4.50328125 14.31601563 -5 15 C-5.68359375 13.21875 -5.68359375 13.21875 -6 11 C-4.78515625 9.21875 -4.78515625 9.21875 -3.0625 7.5 C-0.17180645 4.60272172 0 4.42074306 0 0 Z " fill="#CA191B" transform="translate(704,118)"/>
<path d="M0 0 C4.92908146 3.87792288 8.5423711 7.76116833 12 13 C11.67 13.66 11.34 14.32 11 15 C8.95880212 13.38405168 6.95927063 11.7143618 5 10 C5 9.34 5 8.68 5 8 C4.34 7.67 3.68 7.34 3 7 C0 2.5 0 2.5 0 0 Z " fill="#D01D1E" transform="translate(660,86)"/>
<path d="M0 0 C4.81035973 4.3730543 8.59926143 9.46277438 12 15 C12 15.66 12 16.32 12 17 C11.34 17 10.68 17 10 17 C10 16.34 10 15.68 10 15 C9.34 15 8.68 15 8 15 C7.34 13.35 6.68 11.7 6 10 C5.34 10 4.68 10 4 10 C3.71125 9.195625 3.4225 8.39125 3.125 7.5625 C2.26737432 4.8673532 2.26737432 4.8673532 0 4 C0 2.68 0 1.36 0 0 Z " fill="#C12722" transform="translate(711,153)"/>
<path d="M0 0 C0.99 0.66 1.98 1.32 3 2 C1.73351229 3.9403434 0.46164538 5.87717647 -0.8125 7.8125 C-1.52019531 8.89144531 -2.22789062 9.97039062 -2.95703125 11.08203125 C-4.5360045 13.33727603 -5.9683117 15.17340327 -8 17 C-8 15.68 -8 14.36 -8 13 C-7.34 13 -6.68 13 -6 13 C-5.34 11.02 -4.68 9.04 -4 7 C-3.34 7 -2.68 7 -2 7 C-1.34 4.69 -0.68 2.38 0 0 Z " fill="#FDDCDA" transform="translate(691,92)"/>
<path d="M0 0 C0.33 0 0.66 0 1 0 C1.3125 2.25 1.3125 2.25 1 5 C-0.62935241 6.37868281 -2.29749607 7.71274093 -4 9 C-4.86965506 11.12946603 -4.86965506 11.12946603 -5 13 C-5.99 13 -6.98 13 -8 13 C-6.42903279 7.97290493 -3.38006951 3.97133531 0 0 Z " fill="#CB2424" transform="translate(690,99)"/>
<path d="M0 0 C3.17391668 3.00235362 5.71252601 6.19753642 8.25 9.75 C8.95640625 10.73484375 9.6628125 11.7196875 10.390625 12.734375 C10.92171875 13.48203125 11.4528125 14.2296875 12 15 C11.01 15 10.02 15 9 15 C7.71875 13.5390625 7.71875 13.5390625 6.5 11.625 C4.74125866 8.88542214 3.82715002 7.88476668 1 6 C0.3125 2.875 0.3125 2.875 0 0 Z " fill="#BF2123" transform="translate(728,177)"/>
<path d="M0 0 C0.66 0.33 1.32 0.66 2 1 C-0.97 5.29 -3.94 9.58 -7 14 C-7.33 13.34 -7.66 12.68 -8 12 C-7.0625 9.375 -7.0625 9.375 -6 7 C-5.34 7 -4.68 7 -4 7 C-4 6.01 -4 5.02 -4 4 C-3.34 4 -2.68 4 -2 4 C-2 3.01 -2 2.02 -2 1 C-1.34 0.67 -0.68 0.34 0 0 Z " fill="#C71A1C" transform="translate(675,159)"/>
<path d="M0 0 C2.0625 2.1875 2.0625 2.1875 4 5 C3.84077523 8.42333251 3.4368763 9.5631237 1 12 C0.63597631 10.56496445 0.28413409 9.12683494 -0.0625 7.6875 C-0.25972656 6.88699219 -0.45695313 6.08648437 -0.66015625 5.26171875 C-1 3 -1 3 0 0 Z " fill="#FBE1DE" transform="translate(658,127)"/>
<path d="M0 0 C2.76223278 2.76223278 2.57856291 5.20706617 3 9 C1.35 9 -0.3 9 -2 9 C-1.34 6.03 -0.68 3.06 0 0 Z " fill="#D6D6D6" transform="translate(485,210)"/>
<path d="M0 0 C1 2 1 2 0.36328125 4.12890625 C0.01652344 4.93199219 -0.33023438 5.73507813 -0.6875 6.5625 C-1.02136719 7.36816406 -1.35523438 8.17382812 -1.69921875 9.00390625 C-3 11 -3 11 -5.14453125 11.77734375 C-6.06298828 11.88755859 -6.06298828 11.88755859 -7 12 C-5.44298069 7.32894208 -2.91552627 3.91294315 0 0 Z " fill="#CC2321" transform="translate(698,87)"/>
<path d="M0 0 C-0.3125 1.9375 -0.3125 1.9375 -1 4 C-4.01490557 5.00496852 -6.04181692 5.10335303 -9.1875 5.0625 C-10.53908203 5.04896484 -10.53908203 5.04896484 -11.91796875 5.03515625 C-12.60503906 5.02355469 -13.29210937 5.01195312 -14 5 C-11.35493484 3.23662322 -9.40786033 2.3439149 -6.4375 1.375 C-5.65246094 1.11460937 -4.86742187 0.85421875 -4.05859375 0.5859375 C-2 0 -2 0 0 0 Z " fill="#FAD7D3" transform="translate(654,192)"/>
<path d="M0 0 C0.66 0 1.32 0 2 0 C2 0.66 2 1.32 2 2 C2.598125 2.04125 3.19625 2.0825 3.8125 2.125 C6 3 6 3 7.6875 5.9375 C8.120625 6.948125 8.55375 7.95875 9 9 C9.33 9.66 9.66 10.32 10 11 C6.57802415 9.57913611 4.90089977 7.93029236 2.75 4.9375 C1.96882812 3.86822266 1.96882812 3.86822266 1.171875 2.77734375 C0 1 0 1 0 0 Z " fill="#C52225" transform="translate(699,181)"/>
<path d="M0 0 C0.99 0 1.98 0 3 0 C3 0.66 3 1.32 3 2 C4.32 2.66 5.64 3.32 7 4 C7 5.98 7 7.96 7 10 C3.66442368 7.0094833 1.84916079 4.06815373 0 0 Z " fill="#FDE1DF" transform="translate(718,161)"/>
<path d="M0 0 C0.66 0 1.32 0 2 0 C3.32 2.31 4.64 4.62 6 7 C5.21625 6.649375 4.4325 6.29875 3.625 5.9375 C2.75875 5.628125 1.8925 5.31875 1 5 C0.01 5.495 0.01 5.495 -1 6 C-1.66 5.34 -2.32 4.68 -3 4 C-1.625 2 -1.625 2 0 0 Z " fill="#FCDCDB" transform="translate(680,155)"/>
<path d="M0 0 C0.99 0 1.98 0 3 0 C1.6302836 3.99500618 -0.25722422 6.80009492 -3 10 C-3.33 8.68 -3.66 7.36 -4 6 C-3.01 5.67 -2.02 5.34 -1 5 C-0.67 3.35 -0.34 1.7 0 0 Z " fill="#FBDDDE" transform="translate(699,80)"/>
<path d="M0 0 C0.33 1.32 0.66 2.64 1 4 C-0.43359375 6.140625 -0.43359375 6.140625 -2.4375 8.25 C-3.09621094 8.95640625 -3.75492188 9.6628125 -4.43359375 10.390625 C-5.20896484 11.18726563 -5.20896484 11.18726563 -6 12 C-6.66 11.67 -7.32 11.34 -8 11 C-5.36 7.37 -2.72 3.74 0 0 Z " fill="#C32E2C" transform="translate(632,177)"/>
<path d="M0 0 C0.66 0 1.32 0 2 0 C2 0.66 2 1.32 2 2 C2.66 2.33 3.32 2.66 4 3 C5.34275169 3.98731742 6.67732273 4.98594743 8 6 C7.67 6.99 7.34 7.98 7 9 C4 8 4 8 2.83203125 6.15234375 C2.49558594 5.42144531 2.15914062 4.69054687 1.8125 3.9375 C1.46832031 3.20402344 1.12414062 2.47054687 0.76953125 1.71484375 C0.51558594 1.14894531 0.26164063 0.58304687 0 0 Z " fill="#FCD0CA" transform="translate(675,104)"/>
<path d="M0 0 C2.50298434 2.93828597 3.46930939 5.17902761 4 9 C2.68 8.67 1.36 8.34 0 8 C0 5.36 0 2.72 0 0 Z " fill="#EBEBE9" transform="translate(244,103)"/>
<path d="M0 0 C1.32 0.33 2.64 0.66 4 1 C4 2.98 4 4.96 4 7 C2.68 7 1.36 7 0 7 C0 4.69 0 2.38 0 0 Z " fill="#050605" transform="translate(460,221)"/>
<path d="M0 0 C0.99 0.33 1.98 0.66 3 1 C1.35 3.64 -0.3 6.28 -2 9 C-2.66 7.68 -3.32 6.36 -4 5 C-2.68 4.34 -1.36 3.68 0 3 C0 2.01 0 1.02 0 0 Z " fill="#FCDBD8" transform="translate(653,143)"/>
<path d="M0 0 C0.99 0 1.98 0 3 0 C3 1.32 3 2.64 3 4 C0.03 4 -2.94 4 -6 4 C-6 3.67 -6 3.34 -6 3 C-4.35 3 -2.7 3 -1 3 C-0.67 2.01 -0.34 1.02 0 0 Z " fill="#161817" transform="translate(550,214)"/>
<path d="M0 0 C2.40072955 2.88087546 4.47291037 5.56404834 6 9 C4.125 8.75 4.125 8.75 2 8 C-0.02755186 5.06004981 0 3.72295997 0 0 Z " fill="#FDD7D7" transform="translate(698,180)"/>
<path d="M0 0 C0.66 0.33 1.32 0.66 2 1 C-0.31 4.3 -2.62 7.6 -5 11 C-5.33 10.34 -5.66 9.68 -6 9 C-5.0390625 7.08984375 -5.0390625 7.08984375 -3.625 4.9375 C-3.16351562 4.22464844 -2.70203125 3.51179688 -2.2265625 2.77734375 C-1 1 -1 1 0 0 Z " fill="#BF2925" transform="translate(714,108)"/>
<path d="M0 0 C1.231394 2.46278801 1.07159196 4.2795055 1 7 C-0.32 6.34 -1.64 5.68 -3 5 C-3 4.01 -3 3.02 -3 2 C-2.01 1.34 -1.02 0.68 0 0 Z " fill="#EA0A0E" transform="translate(710,185)"/>
<path d="M0 0 C2 1 4 2 6 3 C6 4.65 6 6.3 6 8 C3.33264727 5.51047079 1.44253657 3.36591866 0 0 Z " fill="#FCD7D6" transform="translate(728,176)"/>
<path d="M0 0 C4.92307692 4.30769231 4.92307692 4.30769231 5.3125 7.8125 C5.209375 8.534375 5.10625 9.25625 5 10 C4.731875 9.38125 4.46375 8.7625 4.1875 8.125 C3.04443152 5.7004767 3.04443152 5.7004767 0 4 C0 2.68 0 1.36 0 0 Z " fill="#CD2120" transform="translate(711,153)"/>
</svg>
